<svg width="3837" height="3094" viewBox="0 0 3837 3094" fill="none" xmlns="http://www.w3.org/2000/svg">
<path d="M2967.1 2986H422.1L1462.1 516.6H1927.1L2967.1 2986Z" fill="#F1DABF"/>
<path d="M1650.5 330.8L1694.6 286.7L1738.7 330.8" stroke="#FA9232" stroke-width="6" stroke-miterlimit="10"/>
<path d="M1694.6 286.7V139" stroke="#FA9232" stroke-width="6" stroke-miterlimit="10"/>
<path d="M1694.6 593.6C1733.81 593.6 1765.6 561.812 1765.6 522.6C1765.6 483.388 1733.81 451.6 1694.6 451.6C1655.39 451.6 1623.6 483.388 1623.6 522.6C1623.6 561.812 1655.39 593.6 1694.6 593.6Z" fill="#FA9232" stroke="white" stroke-width="6" stroke-miterlimit="10"/>
<path d="M1927.1 516.6H1462.2L1468.4 488.3C1488.8 395.1 1583.9 327.5 1694.7 327.5C1750.1 327.5 1801.6 344.4 1841.7 372.9C1881.9 401.4 1910.7 441.6 1920.9 488.2L1927.1 516.6Z" stroke="#9A3B82" stroke-width="6" stroke-miterlimit="10" stroke-linecap="round"/>
<path d="M2411.1 2109.2H2363.9V2407.2H2411.1V2109.2Z" fill="#66B0F0"/>
<path d="M3268.2 2407.2H2999.5C2989.8 2407.2 2982.3 2398.8 2983.5 2389.2L3020.9 2073.5C3021.9 2065.4 3028.8 2059.3 3036.9 2059.3H3305.6C3315.3 2059.3 3322.8 2067.7 3321.6 2077.3L3284.2 2393C3283.2 2401.1 3276.3 2407.2 3268.2 2407.2Z" fill="#9A3B82"/>
<path d="M3121.8 2407.2H2909.6C2896.6 2407.2 2886.5 2395.8 2888 2382.9L2915.2 2153C2916.5 2142.1 2925.8 2133.8 2936.8 2133.8H3154.1L3121.8 2407.2Z" fill="white" stroke="#FA9232" stroke-width="6" stroke-miterlimit="10"/>
<path d="M3145.6 2407.2H2943.1C2930.1 2407.2 2920 2395.8 2921.5 2382.9L2948.7 2153C2950 2142.1 2959.3 2133.8 2970.3 2133.8H3175.4C3181.9 2133.8 3187 2139.5 3186.2 2146L3156.4 2397.5C3155.8 2403.1 3151.1 2407.2 3145.6 2407.2Z" fill="white" stroke="#FA9232" stroke-width="6" stroke-miterlimit="10"/>
<path d="M2496 2154H2414.1V2407.2H2496V2154Z" stroke="#9A3B82" stroke-width="6" stroke-miterlimit="10" stroke-linecap="round"/>
<path d="M2582.8 2154H2467.5V2407.2H2582.8V2154Z" stroke="#9A3B82" stroke-width="6" stroke-miterlimit="10" stroke-linecap="round"/>
<path d="M2722.5 2407.2H2690.6L2571.9 2126.2H2603.8L2722.5 2407.2Z" stroke="#9A3B82" stroke-width="6" stroke-miterlimit="10" stroke-linecap="round"/>
<path d="M2783.3 2407.2H2723.9L2621.7 2168.9H2681.1L2783.3 2407.2Z" stroke="#9A3B82" stroke-width="6" stroke-miterlimit="10" stroke-linecap="round"/>
<path d="M2360.9 2154H2278.3V2407.2H2360.9V2154Z" stroke="#9A3B82" stroke-width="6" stroke-miterlimit="10" stroke-linecap="round"/>
<path d="M2662.5 1959.9H2278.3V2009.3H2662.5V1959.9Z" stroke="#9A3B82" stroke-width="6" stroke-miterlimit="10" stroke-linecap="round"/>
<path d="M2765 1922.1H2278.3V1961.9H2765V1922.1Z" fill="#DB1111"/>
<path d="M2606.8 1864.7H2278.3V1921.1H2606.8V1864.7Z" fill="#FA9232"/>
<path d="M2662.5 1821.6H2278.3V1863.7H2662.5V1821.6Z" stroke="#9A3B82" stroke-width="6" stroke-miterlimit="10" stroke-linecap="round"/>
<path d="M3325.4 1710.6L3325.1 1712.3L3279.7 2009.3H2858.5L2903.9 1712.3L2904.5 1708.1C2911.7 1693.5 2955.7 1682.2 3009 1682.2C3067.3 1682.2 3114.5 1695.7 3114.5 1712.3C3114.5 1695.7 3161.7 1682.2 3220 1682.2C3276.3 1682.3 3322.2 1694.8 3325.4 1710.6Z" fill="white" stroke="#FA9232" stroke-width="6" stroke-miterlimit="10"/>
<path d="M3069.6 2009.4L3114.6 1712.4" stroke="#FA9232" stroke-width="6" stroke-miterlimit="10"/>
<path d="M3069.6 2009.4C3069.6 1992.8 3022.4 1979.3 2964.1 1979.3C2905.8 1979.3 2858.6 1992.8 2858.6 2009.4H3069.6Z" fill="#FA9232"/>
<path d="M3280.6 2009.4C3280.6 1992.8 3233.4 1979.3 3175.1 1979.3C3116.8 1979.3 3069.6 1992.8 3069.6 2009.4H3280.6Z" fill="#FA9232"/>
<path d="M3071.2 2003.1C3070.6 1986.5 3117.3 1971.4 3175.6 1969.3C3212 1968 3247.9 1973.1 3266.8 1980.4L3311.8 1697.5" stroke="#FA9232" stroke-width="6" stroke-miterlimit="10" stroke-linecap="round"/>
<path d="M3291.8 1611.5H2913.6V1527.3C2913.6 1519 2920.3 1512.3 2928.6 1512.3H3276.9C3285.2 1512.3 3291.9 1519 3291.9 1527.3V1611.5H3291.8Z" fill="white" stroke="#9A3B82" stroke-width="6" stroke-miterlimit="10" stroke-linecap="round"/>
<path d="M3322 1508.3H2996.1C2991 1508.3 2987 1504.2 2987 1499.2V1465.7C2987 1460.6 2991.1 1456.6 2996.1 1456.6H3322C3327.1 1456.6 3331.1 1460.7 3331.1 1465.7V1499.2C3331.1 1504.2 3327 1508.3 3322 1508.3Z" fill="#FA9232"/>
<path d="M3334.7 1425.2H2948.1V1456.6H3334.7V1425.2Z" fill="#DB1111"/>
<path d="M3327.7 1425.2H3032.6C3028.7 1425.2 3025.6 1422 3025.6 1418.2V1392.9C3025.6 1389 3028.8 1385.9 3032.6 1385.9H3327.7C3331.6 1385.9 3334.7 1389.1 3334.7 1392.9V1418.2C3334.7 1422 3331.6 1425.2 3327.7 1425.2Z" fill="white" stroke="#9A3B82" stroke-width="6" stroke-miterlimit="10" stroke-linecap="round"/>
<path d="M2515.9 1302.6H2402.4V1611.5H2515.9V1302.6Z" stroke="#9A3B82" stroke-width="6" stroke-miterlimit="10" stroke-linecap="round"/>
<path d="M2402.4 1302.6H2356.6V1611.5H2402.4V1302.6Z" fill="white" stroke="#9A3B82" stroke-width="6" stroke-miterlimit="10" stroke-linecap="round"/>
<path d="M2356.6 1302.6H2279.6V1611.5H2356.6V1302.6Z" fill="white" stroke="#9A3B82" stroke-width="6" stroke-miterlimit="10" stroke-linecap="round"/>
<path d="M2630.4 1358.4H2530.9V1611.6H2630.4V1358.4Z" stroke="#9A3B82" stroke-width="6" stroke-miterlimit="10" stroke-linecap="round"/>
<path d="M2538.1 1611.5H2498.9C2495.1 1611.5 2491.9 1608.4 2491.9 1604.5V1365.2C2491.9 1361.4 2495 1358.2 2498.9 1358.2H2538.1C2541.9 1358.2 2545.1 1361.3 2545.1 1365.2V1604.5C2545 1608.4 2541.9 1611.5 2538.1 1611.5Z" fill="white" stroke="#9A3B82" stroke-width="6" stroke-miterlimit="10" stroke-linecap="round"/>
<path d="M2630.4 1358.4V1497.2L2576.5 1358.4H2630.4Z" fill="#9A3B82"/>
<path d="M2860.8 1611.5H2701.6C2698.1 1611.5 2694.9 1609.3 2693.7 1606.1L2590.3 1339.9C2588.1 1334.3 2592.2 1328.3 2598.2 1328.3H2757.4C2760.9 1328.3 2764.1 1330.5 2765.3 1333.7L2868.7 1599.9C2870.9 1605.5 2866.8 1611.5 2860.8 1611.5Z" fill="white" stroke="#FA9232" stroke-width="6" stroke-miterlimit="10"/>
<path d="M2886.8 1611.5H2727.6C2724.1 1611.5 2720.9 1609.3 2719.7 1606.1L2616.3 1339.9C2614.1 1334.3 2618.2 1328.3 2624.2 1328.3H2783.4C2786.9 1328.3 2790.1 1330.5 2791.3 1333.7L2894.7 1599.9C2896.9 1605.5 2892.8 1611.5 2886.8 1611.5Z" fill="white" stroke="#FA9232" stroke-width="6" stroke-miterlimit="10"/>
<path d="M3166.4 1146.1C3151.5 1150.3 3135.7 1152.6 3119.5 1152.6C3024.8 1152.6 2948.1 1075.9 2948.1 981.2C2948.1 903.1 3000.4 837.1 3071.9 816.5L3166.4 1146.1Z" stroke="#FA9232" stroke-width="6" stroke-miterlimit="10"/>
<path d="M3119.5 1152.6V1213.7" stroke="#FA9232" stroke-width="6" stroke-miterlimit="10"/>
<path d="M3119.5 1126.4C3199.69 1126.4 3264.7 1061.39 3264.7 981.2C3264.7 901.008 3199.69 836 3119.5 836C3039.31 836 2974.3 901.008 2974.3 981.2C2974.3 1061.39 3039.31 1126.4 3119.5 1126.4Z" fill="white" stroke="#3FB1B5" stroke-width="6" stroke-miterlimit="10"/>
<path d="M3180.2 1213.3H3059.3L3119.3 1183.2L3180.2 1213.3Z" fill="white" stroke="#FA9232" stroke-width="6" stroke-miterlimit="10"/>
<path d="M3334.7 1213.7V2986H3280V2857C3280 2828.3 3256.7 2805 3228 2805H2384.4C2355.7 2805 2332.4 2828.3 2332.4 2857V2986H2278.3V1213.7H3334.7Z" stroke="#9A3B82" stroke-width="6" stroke-miterlimit="10" stroke-linecap="round"/>
<path d="M3258.8 2755.9H2352.2C2340.7 2755.9 2331.3 2746.6 2331.3 2735V2474.1C2331.3 2462.6 2340.6 2453.2 2352.2 2453.2H3258.8C3270.3 2453.2 3279.7 2462.5 3279.7 2474.1V2735C3279.7 2746.6 3270.3 2755.9 3258.8 2755.9Z" stroke="#3FB1B5" stroke-width="6" stroke-miterlimit="10"/>
<path d="M2853.3 970.3V1213.7H2768.1L2853.3 970.3Z" fill="#9A3B82"/>
<path d="M2853.3 970.3L2852.7 972.1L2768.6 1213.7H2377.6L2461.7 972.1L2464.4 964.4C2477 946.3 2511.9 933.1 2553.5 932.4C2554.2 932.4 2554.8 932.4 2555.5 932.4C2556.2 932.4 2556.8 932.4 2557.5 932.4C2606.1 932.4 2649.4 949.3 2657.3 971.5C2665.1 949.3 2706.5 932.4 2755.1 932.4C2802.7 932.4 2844.4 948.7 2853.3 970.3Z" fill="white" stroke="#FA9232" stroke-width="6" stroke-miterlimit="10"/>
<path d="M2657.2 971.5L2572.3 1208.7" stroke="#FA9232" stroke-width="6" stroke-miterlimit="10" stroke-linecap="round"/>
<path d="M2572.1 1210.7H2377.6C2384.8 1188.2 2425.2 1170.9 2473.8 1170.9C2522.6 1170.9 2564.9 1188.2 2572.1 1210.7Z" fill="#FA9232"/>
<path d="M2768.1 1210.7H2573.6C2580.8 1188.2 2621.2 1170.9 2669.8 1170.9C2718.6 1170.9 2760.9 1188.2 2768.1 1210.7Z" fill="#FA9232"/>
<path d="M2740.4 2530.5C2740.4 2522.7 2746.7 2516.3 2754.6 2516.3H2860.7C2868.5 2516.3 2874.9 2522.6 2874.9 2530.5" stroke="#9A3B82" stroke-width="6" stroke-miterlimit="10" stroke-linecap="round"/>
<path d="M2278.3 2009.4H3334.7" stroke="#9A3B82" stroke-width="6" stroke-miterlimit="10" stroke-linecap="round"/>
<path d="M2278.3 1611.5H3334.7" stroke="#9A3B82" stroke-width="6" stroke-miterlimit="10" stroke-linecap="round"/>
<path d="M2278.3 2407.2H3334.7" stroke="#9A3B82" stroke-width="6" stroke-miterlimit="10" stroke-linecap="round"/>
<path d="M2408.3 842.1L2278.3 1213.7H3334.7L3464.7 842.1" stroke="#9A3B82" stroke-width="6" stroke-miterlimit="10" stroke-linecap="round" stroke-linejoin="round"/>
<path d="M3583.3 2890.6C3583.3 2910.7 3579.6 2930 3572.8 2947.9C3562.9 2973.9 3537.8 2990.9 3509.9 2990.9H3298.2C3270.4 2990.9 3245.2 2973.9 3235.4 2947.9C3228.6 2930 3224.9 2910.7 3224.9 2890.6C3224.9 2832.6 3255.6 2781.4 3302.5 2750.8V2717C3302.5 2731.8 3348 2743.8 3404 2743.8C3460.1 2743.8 3505.5 2731.8 3505.5 2717V2750.9C3552.6 2781.4 3583.3 2832.6 3583.3 2890.6Z" fill="#DB1111"/>
<path d="M3505.7 2741.6V2750.6C3489.6 2763.4 3445.8 2770.2 3404.2 2770.2C3362.6 2770.2 3318.8 2763.4 3302.7 2750.6V2741.6C3304.6 2745.9 3312.7 2751.5 3330.7 2756.2C3350.3 2761.4 3376.4 2764.2 3404.2 2764.2C3432 2764.2 3458.1 2761.4 3477.7 2756.2C3495.7 2751.4 3503.7 2745.8 3505.7 2741.6Z" fill="white"/>
<path d="M3505.7 2717C3505.7 2731.8 3460.2 2743.8 3404.2 2743.8C3348.2 2743.8 3302.7 2731.8 3302.7 2717C3302.7 2715.1 3303.4 2713.3 3304.8 2711.5C3314.4 2699.4 3355.2 2690.2 3404.2 2690.2C3453.2 2690.2 3494 2699.3 3503.6 2711.5C3504.9 2713.3 3505.7 2715.1 3505.7 2717Z" fill="#66B0F0"/>
<path d="M3268.3 2848.1C3275.37 2848.1 3281.1 2842.37 3281.1 2835.3C3281.1 2828.23 3275.37 2822.5 3268.3 2822.5C3261.23 2822.5 3255.5 2828.23 3255.5 2835.3C3255.5 2842.37 3261.23 2848.1 3268.3 2848.1Z" stroke="#FA9232" stroke-width="6" stroke-miterlimit="10"/>
<path d="M3311.7 2879.6C3318.77 2879.6 3324.5 2873.87 3324.5 2866.8C3324.5 2859.73 3318.77 2854 3311.7 2854C3304.63 2854 3298.9 2859.73 3298.9 2866.8C3298.9 2873.87 3304.63 2879.6 3311.7 2879.6Z" stroke="#FA9232" stroke-width="6" stroke-miterlimit="10"/>
<path d="M3365.7 2842.2C3372.77 2842.2 3378.5 2836.47 3378.5 2829.4C3378.5 2822.33 3372.77 2816.6 3365.7 2816.6C3358.63 2816.6 3352.9 2822.33 3352.9 2829.4C3352.9 2836.47 3358.63 2842.2 3365.7 2842.2Z" stroke="#FA9232" stroke-width="6" stroke-miterlimit="10"/>
<path d="M3358.1 2927.2C3365.17 2927.2 3370.9 2921.47 3370.9 2914.4C3370.9 2907.33 3365.17 2901.6 3358.1 2901.6C3351.03 2901.6 3345.3 2907.33 3345.3 2914.4C3345.3 2921.47 3351.03 2927.2 3358.1 2927.2Z" stroke="#FA9232" stroke-width="6" stroke-miterlimit="10"/>
<path d="M3310.1 2964.5C3317.17 2964.5 3322.9 2958.77 3322.9 2951.7C3322.9 2944.63 3317.17 2938.9 3310.1 2938.9C3303.03 2938.9 3297.3 2944.63 3297.3 2951.7C3297.3 2958.77 3303.03 2964.5 3310.1 2964.5Z" stroke="#FA9232" stroke-width="6" stroke-miterlimit="10"/>
<path d="M3261.7 2927.2C3268.77 2927.2 3274.5 2921.47 3274.5 2914.4C3274.5 2907.33 3268.77 2901.6 3261.7 2901.6C3254.63 2901.6 3248.9 2907.33 3248.9 2914.4C3248.9 2921.47 3254.63 2927.2 3261.7 2927.2Z" stroke="#FA9232" stroke-width="6" stroke-miterlimit="10"/>
<path d="M3318.7 2800.6C3325.77 2800.6 3331.5 2794.87 3331.5 2787.8C3331.5 2780.73 3325.77 2775 3318.7 2775C3311.63 2775 3305.9 2780.73 3305.9 2787.8C3305.9 2794.87 3311.63 2800.6 3318.7 2800.6Z" stroke="#FA9232" stroke-width="6" stroke-miterlimit="10"/>
<path d="M3420.6 2810.3C3427.67 2810.3 3433.4 2804.57 3433.4 2797.5C3433.4 2790.43 3427.67 2784.7 3420.6 2784.7C3413.53 2784.7 3407.8 2790.43 3407.8 2797.5C3407.8 2804.57 3413.53 2810.3 3420.6 2810.3Z" stroke="#FA9232" stroke-width="6" stroke-miterlimit="10"/>
<path d="M3409.9 2887.9C3416.97 2887.9 3422.7 2882.17 3422.7 2875.1C3422.7 2868.03 3416.97 2862.3 3409.9 2862.3C3402.83 2862.3 3397.1 2868.03 3397.1 2875.1C3397.1 2882.17 3402.83 2887.9 3409.9 2887.9Z" stroke="#FA9232" stroke-width="6" stroke-miterlimit="10"/>
<path d="M3446.9 2938.9C3453.97 2938.9 3459.7 2933.17 3459.7 2926.1C3459.7 2919.03 3453.97 2913.3 3446.9 2913.3C3439.83 2913.3 3434.1 2919.03 3434.1 2926.1C3434.1 2933.17 3439.83 2938.9 3446.9 2938.9Z" stroke="#FA9232" stroke-width="6" stroke-miterlimit="10"/>
<path d="M3398.9 2977.3C3405.97 2977.3 3411.7 2971.57 3411.7 2964.5C3411.7 2957.43 3405.97 2951.7 3398.9 2951.7C3391.83 2951.7 3386.1 2957.43 3386.1 2964.5C3386.1 2971.57 3391.83 2977.3 3398.9 2977.3Z" stroke="#FA9232" stroke-width="6" stroke-miterlimit="10"/>
<path d="M3460.6 2857.3C3467.67 2857.3 3473.4 2851.57 3473.4 2844.5C3473.4 2837.43 3467.67 2831.7 3460.6 2831.7C3453.53 2831.7 3447.8 2837.43 3447.8 2844.5C3447.8 2851.57 3453.53 2857.3 3460.6 2857.3Z" stroke="#FA9232" stroke-width="6" stroke-miterlimit="10"/>
<path d="M3497.7 2804.8C3504.77 2804.8 3510.5 2799.07 3510.5 2792C3510.5 2784.93 3504.77 2779.2 3497.7 2779.2C3490.63 2779.2 3484.9 2784.93 3484.9 2792C3484.9 2799.07 3490.63 2804.8 3497.7 2804.8Z" stroke="#FA9232" stroke-width="6" stroke-miterlimit="10"/>
<path d="M3539.9 2847.3C3546.97 2847.3 3552.7 2841.57 3552.7 2834.5C3552.7 2827.43 3546.97 2821.7 3539.9 2821.7C3532.83 2821.7 3527.1 2827.43 3527.1 2834.5C3527.1 2841.57 3532.83 2847.3 3539.9 2847.3Z" stroke="#FA9232" stroke-width="6" stroke-miterlimit="10"/>
<path d="M3491.6 2889.2C3498.67 2889.2 3504.4 2883.47 3504.4 2876.4C3504.4 2869.33 3498.67 2863.6 3491.6 2863.6C3484.53 2863.6 3478.8 2869.33 3478.8 2876.4C3478.8 2883.47 3484.53 2889.2 3491.6 2889.2Z" stroke="#FA9232" stroke-width="6" stroke-miterlimit="10"/>
<path d="M3549.4 2916C3556.47 2916 3562.2 2910.27 3562.2 2903.2C3562.2 2896.13 3556.47 2890.4 3549.4 2890.4C3542.33 2890.4 3536.6 2896.13 3536.6 2903.2C3536.6 2910.27 3542.33 2916 3549.4 2916Z" stroke="#FA9232" stroke-width="6" stroke-miterlimit="10"/>
<path d="M3510.5 2965.2C3517.57 2965.2 3523.3 2959.47 3523.3 2952.4C3523.3 2945.33 3517.57 2939.6 3510.5 2939.6C3503.43 2939.6 3497.7 2945.33 3497.7 2952.4C3497.7 2959.47 3503.43 2965.2 3510.5 2965.2Z" stroke="#FA9232" stroke-width="6" stroke-miterlimit="10"/>
<path d="M3628.4 2561.2C3628.4 2561.2 3723.4 2509.9 3739.1 2599.5C3757.3 2703 3633.7 2794.1 3633.7 2794.1C3633.7 2794.1 3607.1 2728.2 3535.8 2671.4C3474.1 2622.3 3525.3 2492.1 3628.4 2561.2Z" fill="white" stroke="#FA9232" stroke-width="6" stroke-miterlimit="10"/>
<path d="M3441.9 2447.1C3487 2447.5 3551.8 2355.9 3490.6 2255.4C3416.7 2134 3404 2063.7 3404 2063.7C3404 2063.7 3295.3 2207.5 3313.8 2317.8C3334.1 2438.6 3441.9 2447.1 3441.9 2447.1Z" fill="#FA9232"/>
<path d="M3449.7 2386.1C3515.6 2403.5 3578.2 2363.4 3579.5 2272C3581.8 2110.4 3612.4 2057.8 3612.4 2057.8C3612.4 2057.8 3407.1 2131.7 3376 2246.5C3346.4 2355.9 3449.7 2386.1 3449.7 2386.1Z" fill="white" stroke="#FA9232" stroke-width="6" stroke-miterlimit="10"/>
<path d="M3174.3 2492.5C3171.9 2492.7 3169.4 2492.9 3166.7 2493.1C3024.9 2503.7 2984.1 2633.5 2984.1 2633.5C2984.1 2633.5 2975.4 2624.1 2977.2 2591.6C2980.6 2507.8 3057.7 2421.2 3145.7 2476.2C3155.5 2482.4 3165.1 2487.7 3174.3 2492.5Z" fill="#FA9232"/>
<path d="M3335.1 2524.4C3310.1 2526 3253 2532.9 3174.3 2492.5C3165.1 2487.8 3155.5 2482.4 3145.7 2476.2C3057.7 2421.2 2982.6 2507.8 2979.2 2591.6C2979 2595.7 2980 2599.8 2980.2 2603.8C2971.9 2531 2972.1 2349.8 3192.4 2355.9C3343.8 2360.3 3335.1 2524.4 3335.1 2524.4Z" fill="white" stroke="#FA9232" stroke-width="6" stroke-miterlimit="10"/>
<path d="M3371.1 2711.7C3371.1 2711.7 3397.2 2348 3044.5 2395.5" stroke="#FA9232" stroke-width="6" stroke-miterlimit="10"/>
<path d="M3612.4 2057.8C3390.2 2284.8 3431.6 2711.7 3431.6 2711.7C3408.2 2548.4 3551.8 2386.1 3628.3 2556.9C3651.1 2607.7 3633.6 2794 3633.6 2794" stroke="#FA9232" stroke-width="6" stroke-miterlimit="10"/>
<path d="M320 2425.8L290.2 2451.9C285.4 2446.2 281.1 2439.9 277.4 2433L91.5999 2086.8C83.7999 2072.3 94.3 2054.8 110.7 2054.8H136.7C157.5 2054.8 176.5 2066.2 186.3 2084.5L332.4 2356.7C345 2379.9 339.8 2408.6 320 2425.8Z" fill="#FA9232"/>
<path d="M825.8 2433.4L393.5 2522.2V2513.2C393.5 2470.1 423.8 2433 466 2424.3L744.5 2367.1C786.5 2358.5 825.8 2390.6 825.8 2433.4Z" fill="#FA9232"/>
<path d="M776.8 2986V2552.9C776.8 2517 743.9 2490.2 708.7 2497.4L437.2 2553.1C404.9 2559.7 378.3 2582.3 366.5 2613.1L223.2 2986" stroke="#9A3B82" stroke-width="6" stroke-miterlimit="10" stroke-linecap="round"/>
<path d="M90.5 2084.9L301.6 2478.2C319.7 2511.9 357.7 2529.7 395.2 2522L826.8 2433.4" stroke="#9A3B82" stroke-width="6" stroke-miterlimit="10" stroke-linecap="round"/>
<path d="M979.1 2112.2H613.8V2161H979.1V2112.2Z" fill="#66B0F0"/>
<path d="M912.5 2059.2C916.9 2063.3 919.6 2070.7 919.6 2076.9C919.6 2089.3 908.8 2102 895.4 2102H562.2C562.2 2107.8 566.9 2112.5 572.7 2112.5H974.8C985.6 2112.5 995.3 2108.5 1002.4 2101.9C1009.5 2095.4 1013.8 2086.3 1013.8 2076.3C1013.8 2056.3 996.3 2040.2 974.8 2040.2H572.7C566.9 2040.2 562.2 2044.9 562.2 2050.7V2052.6H895.4C902.1 2052.7 908.1 2055.2 912.5 2059.2Z" fill="#DB1111"/>
<path d="M586.3 2052.7V2101.1H562.3V2105.1H896.6C900.3 2105.1 903.9 2104.4 907.1 2103.1C910.7 2101.7 913.9 2099.5 916.5 2096.9C921.6 2091.8 924.8 2084.7 924.8 2076.9C924.8 2061.3 912.1 2048.7 896.6 2048.7H562.3V2052.7H586.3Z" fill="#DB1111"/>
<path d="M577 2052.7V2101.1H895.4C908.8 2101.1 919.6 2090.3 919.6 2076.9C919.6 2070.2 916.9 2064.2 912.5 2059.8C908.1 2055.4 902.1 2052.7 895.4 2052.7H577Z" fill="white"/>
<path d="M577 2052.7V2101.1" stroke="#DB1111" stroke-width="5" stroke-miterlimit="10"/>
<path d="M850.9 2087V2127.4H878.8V2092.2C878.8 2083.8 885.6 2077 894 2077H906.4V2071.8H866C857.8 2071.8 850.9 2078.6 850.9 2087Z" fill="#FA9232"/>
<path d="M408.7 2202.8C408.7 2181.5 426 2164.2 447.3 2164.2H1206.3C1227.6 2164.2 1244.9 2181.5 1244.9 2202.8" stroke="#9A3B82" stroke-width="6" stroke-miterlimit="10" stroke-linecap="round"/>
<path d="M1245.5 2986L1031.2 2239.6C1021.7 2206.6 989 2183.6 951.6 2183.6H701.9C664.5 2183.6 631.8 2206.6 622.3 2239.6L408.1 2986" stroke="#9A3B82" stroke-width="6" stroke-miterlimit="10" stroke-linecap="round"/>
<path d="M1425.4 2856.8V2965.6C1425.4 2976.9 1434.5 2986 1445.8 2986H1717.8C1717.8 2986 1719.4 2935.5 1678 2921.4C1607.7 2897.5 1574.9 2856.8 1574.9 2856.8H1425.4Z" fill="white" stroke="#DB1111" stroke-width="6" stroke-miterlimit="10"/>
<path d="M1576.7 2912.5C1587.8 2909.4 1627.8 2887.3 1614.1 2873.6C1607.6 2867.1 1592 2873.6 1592 2873.6" stroke="#DB1111" stroke-width="6" stroke-miterlimit="10"/>
<path d="M1617.7 2927.5C1628.8 2924.4 1667.2 2899.7 1652.1 2887.6C1640.7 2878.4 1623.6 2896.2 1623.6 2896.2" stroke="#DB1111" stroke-width="6" stroke-miterlimit="10"/>
<path d="M1583.3 2865.6L1425.4 2914.7V2856.8H1575C1575 2856.8 1577.7 2860.2 1583.3 2865.6Z" fill="#DB1111"/>
<path d="M1766.4 2856.8V2965.6C1766.4 2976.9 1775.5 2986 1786.8 2986H2058.8C2058.8 2986 2060.4 2935.5 2019 2921.4C1948.7 2897.5 1915.9 2856.8 1915.9 2856.8H1766.4Z" fill="white" stroke="#DB1111" stroke-width="6" stroke-miterlimit="10"/>
<path d="M1917.7 2912.5C1928.8 2909.4 1968.8 2887.3 1955.1 2873.6C1948.6 2867.1 1933 2873.6 1933 2873.6" stroke="#DB1111" stroke-width="6" stroke-miterlimit="10"/>
<path d="M1958.7 2927.5C1969.8 2924.4 2008.2 2899.7 1993.1 2887.6C1981.7 2878.4 1964.6 2896.2 1964.6 2896.2" stroke="#DB1111" stroke-width="6" stroke-miterlimit="10"/>
<path d="M1924.3 2865.6L1766.4 2914.7V2856.8H1916C1916 2856.8 1918.7 2860.2 1924.3 2865.6Z" fill="#DB1111"/>
<path d="M1498.9 1773.8L1400.4 2805H1606.4L1709.9 2305.3L1752.2 2411.8V2805H1966.7V2364.1L1852.3 1773.8H1498.9Z" fill="#3FB1B5"/>
<path d="M1606.2 2021.5L1510.4 2805" stroke="#9A3B82" stroke-width="6" stroke-miterlimit="10"/>
<path d="M1855.7 2805V2364.1L1721.3 1823.8" stroke="#9A3B82" stroke-width="6" stroke-miterlimit="10"/>
<path d="M1749.2 2411.8L1620.8 2038.9C1616.4 2026.1 1604.3 2017.5 1590.7 2017.5" stroke="white" stroke-width="6" stroke-miterlimit="10"/>
<path d="M1482.6 1944.3L1498.9 1773.8H1852.3L1862.4 1826.2L1482.6 1944.3Z" fill="#9A3B82"/>
<path d="M1967.1 2856.8H1751.4C1743.3 2856.8 1736.7 2850.2 1736.7 2842.1V2819.7C1736.7 2811.6 1743.3 2805 1751.4 2805H1967.1C1975.2 2805 1981.8 2811.6 1981.8 2819.7V2842.1C1981.7 2850.2 1975.2 2856.8 1967.1 2856.8Z" fill="#9A3B82"/>
<path d="M1610.1 2856.8H1394.4C1386.3 2856.8 1379.7 2850.2 1379.7 2842.1V2819.7C1379.7 2811.6 1386.3 2805 1394.4 2805H1610.1C1618.2 2805 1624.8 2811.6 1624.8 2819.7V2842.1C1624.7 2850.2 1618.2 2856.8 1610.1 2856.8Z" fill="#9A3B82"/>
<path d="M2185.8 1804L2253.4 2056.9L1916.4 2147L1848.7 1893.9C1846.6 1886 1841.5 1879.8 1835 1876C1828.5 1872.2 1820.5 1870.9 1812.6 1873C1796.9 1877.2 1787.5 1893.4 1791.7 1909.1L1859.4 2162.2L1852 2164.2L1784.4 1911.3C1779 1891.2 1790.6 1870.6 1810.4 1864.6C1810.8 1864.5 1811.2 1864.4 1811.6 1864.3L2138.8 1776.8C2159.3 1771.4 2180.3 1783.6 2185.8 1804Z" fill="#66B0F0"/>
<path d="M1856.2 1892.2L1923.8 2145.1L1916.4 2147.1L1848.7 1894C1846.6 1886.1 1841.5 1879.9 1835 1876.1C1828.5 1872.3 1820.5 1871 1812.6 1873.1C1796.9 1877.3 1787.5 1893.5 1791.7 1909.2L1859.4 2162.3L1852 2164.3L1784.4 1911.4C1779 1891.3 1790.6 1870.7 1810.4 1864.7C1830.5 1860 1850.8 1872.1 1856.2 1892.2Z" fill="#9A3B82"/>
<path d="M1848.7 1893.9L1912.2 2131.5L1855.2 2146.7L1791.7 1909.1C1787.5 1893.4 1796.8 1877.2 1812.6 1873C1820.5 1870.9 1828.5 1872.2 1835 1876C1841.5 1879.8 1846.6 1886 1848.7 1893.9Z" fill="white"/>
<path d="M2186.8 1938L2033.5 1990.8L1912.5 1773.8H1443.5C1363.8 1773.8 1304.2 1700.5 1320.5 1622.5L1369.3 1388.1C1384.6 1314.7 1449.3 1262.1 1524.2 1262.1H1844.9C1922.6 1262.1 1988.8 1318.5 2001.1 1395.2L2049.4 1623.4L2186.8 1938Z" fill="#FA9232" stroke="white" stroke-width="6" stroke-miterlimit="10"/>
<path d="M1418.5 1771.3C1363.3 1760.2 1322.3 1713.2 1318.1 1657.8C1322.3 1654.9 1327 1652.4 1332 1650.6C1368.3 1637.2 1409.8 1659.2 1424.9 1699.7C1434.2 1725.1 1431 1751.7 1418.5 1771.3Z" fill="white"/>
<path d="M1767.7 1121.5V1262.2H1612.4L1648.2 1168.6L1767.7 1121.5Z" fill="#E57281"/>
<path d="M1803.4 1062.3C1803.3 1062.3 1803.1 1062.4 1803 1062.4L1756.9 1074.6C1740.4 1079 1727.7 1091.2 1722.3 1106.6H1704.6C1693.4 1106.6 1684.3 1115.7 1684.3 1126.9V1127.2C1684.3 1137.8 1692.4 1146.5 1702.8 1147.4C1702.7 1147.5 1702.7 1147.5 1702.7 1147.5C1702.7 1147.5 1694.5 1186.5 1646.6 1173.4C1646.6 1173.4 1648.5 1070.8 1650.5 1038.9C1652.2 1012.6 1791.7 962.8 1804.6 984C1816 1002.8 1802.8 1011.6 1791.6 1015.5C1811.4 1011.3 1848.8 1005.7 1852.6 1022.4C1857 1041.8 1817.5 1058.6 1803.4 1062.3Z" fill="#9A3B82"/>
<path d="M1812.4 1134.2H1807.5L1808.9 1158.2C1809.9 1175.4 1796.1 1190 1778.9 1190H1757.3C1736.5 1190 1719.6 1173.1 1719.6 1152.3V1147.6H1704.7C1693.5 1147.6 1684.4 1138.5 1684.4 1127.3V1127C1684.4 1115.8 1693.5 1106.7 1704.7 1106.7H1722.4C1727.8 1091.3 1740.5 1079 1757 1074.7L1803.1 1062.5L1818.9 1125.8C1820.5 1129.8 1816.7 1134.2 1812.4 1134.2Z" fill="#E57281"/>
<path d="M1724.3 1154.2C1722.2 1176.2 1744.2 1191.9 1765 1191.9" stroke="#9A3B82" stroke-width="5" stroke-miterlimit="10" stroke-linecap="round"/>
<path d="M1716.2 1130.7C1716.2 1122.9 1709.9 1116.6 1702.1 1116.6" stroke="#9A3B82" stroke-width="5" stroke-miterlimit="10" stroke-linecap="round"/>
<path d="M1795.4 1116.4C1797.44 1116.4 1799.1 1112.95 1799.1 1108.7C1799.1 1104.45 1797.44 1101 1795.4 1101C1793.36 1101 1791.7 1104.45 1791.7 1108.7C1791.7 1112.95 1793.36 1116.4 1795.4 1116.4Z" fill="#9A3B82"/>
<path d="M1779.4 1092.5C1779.4 1092.5 1791.7 1083.1 1809.3 1083.1" stroke="#9A3B82" stroke-width="5" stroke-miterlimit="10" stroke-linecap="round"/>
<path d="M1731.8 1837.9C1731.8 1837.9 1854.3 1843.2 1897.4 1744.9L1874.6 1703.2L1806.5 1729.4L1731.8 1837.9Z" fill="white" stroke="#DB1111" stroke-width="6" stroke-miterlimit="10"/>
<path d="M1829.9 1236.4C1824 1236.9 1818.6 1239.5 1814.6 1243.5C1810.2 1247.9 1807.4 1254 1807.4 1260.8V1753.5C1807.4 1800.5 1769.3 1838.6 1722.3 1838.6H1533.4C1482.6 1838.6 1443.4 1794.5 1448.8 1744.4V1744.3L1516.8 1276.6C1520.2 1253.5 1539.9 1236.4 1563.3 1236.4H1829.9Z" fill="#DB1111" stroke="#DB1111" stroke-width="6" stroke-miterlimit="10"/>
<path d="M1810.9 1236.4C1805 1236.9 1799.6 1239.5 1795.6 1243.5C1791.9 1247.2 1789.4 1252 1788.7 1257.4C1788.6 1258.5 1788.5 1259.6 1788.5 1260.7L1784.5 1298.4L1736.5 1753.4C1736.5 1800.4 1698.4 1838.5 1651.4 1838.5H1533.5C1482.7 1838.5 1443.5 1794.4 1448.9 1744.3V1744.2L1479.6 1532.8L1516.9 1276.5C1517.2 1274.3 1517.7 1272.1 1518.3 1269.9C1524.1 1250.2 1542.3 1236.3 1563.3 1236.3H1810.9V1236.4Z" fill="white" stroke="#DB1111" stroke-width="6" stroke-miterlimit="10"/>
<path d="M1768.8 1334.5L1750.9 1468.8C1745 1496.3 1723.6 1511 1692.6 1516L1480.6 1546.8L1511.5 1334.4H1768.8V1334.5Z" fill="#FA9232"/>
<path d="M1803.3 1236.4H1798C1788.4 1236.3 1780 1243.1 1778.1 1252.6L1746.9 1453.9C1741 1481.4 1716.7 1501.1 1688.6 1501.1H1493.5C1469.9 1501.1 1452.3 1479.3 1457.4 1456.2L1495 1285.4C1501.3 1256.8 1526.7 1236.4 1556 1236.4H1803.3Z" fill="#DB1111" stroke="#DB1111" stroke-width="6" stroke-miterlimit="10"/>
<path d="M1642.5 1557.1L1692.2 1253.2C1693.2 1247.1 1698.5 1242.5 1704.7 1242.5C1712.5 1242.5 1718.5 1249.5 1717.2 1257.3L1667.5 1561.2C1666.5 1567.3 1661.2 1571.9 1655 1571.9C1647.2 1571.9 1641.2 1564.9 1642.5 1557.1Z" fill="white" stroke="#DB1111" stroke-width="6" stroke-miterlimit="10"/>
<path d="M1531.4 1557.1L1581.1 1253.2C1582.1 1247.1 1587.4 1242.5 1593.6 1242.5C1601.4 1242.5 1607.4 1249.5 1606.1 1257.3L1556.4 1561.2C1555.4 1567.3 1550.1 1571.9 1543.9 1571.9C1536.1 1571.9 1530.1 1564.9 1531.4 1557.1Z" fill="white" stroke="#DB1111" stroke-width="6" stroke-miterlimit="10"/>
<path d="M1856.4 1262.3L1807.5 1262.5V1260.8C1807.5 1254 1810.2 1247.9 1814.7 1243.5C1818.7 1239.5 1824 1236.9 1830 1236.4H1834C1846.3 1237.4 1856 1247.8 1856.4 1262.3Z" fill="white" stroke="#DB1111" stroke-width="6" stroke-miterlimit="10"/>
<path d="M2168.5 1944.3L2209.7 2050.6C2216.3 2067.7 2206.7 2086.7 2189.1 2091.6L2098.6 2116.4C2093.1 2117.9 2087.3 2116.6 2083 2112.9L2073.8 2104.9L2092.6 2099.9C2100.9 2097.7 2106.5 2090 2106.1 2081.4L2104 2060.2C2103.6 2050.7 2095.9 2043.1 2086.4 2042.8H2087.4C2075.9 2042.4 2064.7 2035.3 2060.2 2024.7L2045.8 1986.4L2168.5 1944.3Z" fill="#E57281"/>
<path d="M2075.7 2107L2090.5 2103C2098.8 2100.8 2104.4 2094.1 2104 2085.5L2102.9 2062.3C2102.5 2052.8 2094.8 2045.2 2085.3 2044.9C2073.8 2044.5 2063.6 2037.4 2059.1 2026.8L2043.7 1990.5" stroke="white" stroke-width="6" stroke-miterlimit="10" stroke-linecap="round"/>
<path d="M2124.1 2106.8C2134.7 2104 2141.9 2094.2 2141.4 2083.2L2140 2053.6" stroke="white" stroke-width="6" stroke-miterlimit="10" stroke-linecap="round"/>
<path d="M2162.4 2096.9C2173 2094.1 2180.2 2084.3 2179.7 2073.3L2178.3 2043.7" stroke="white" stroke-width="6" stroke-miterlimit="10" stroke-linecap="round"/>
<path d="M1819.8 1501.1L1844 1627.7C1848.1 1649.3 1855.7 1670.2 1866.4 1689.4L2033.4 1990.8L2186.7 1938" stroke="white" stroke-width="6" stroke-miterlimit="10"/>
<path d="M1921.1 1788.2L1866.4 1689.4C1857.2 1672.7 1850.3 1654.9 1845.9 1636.4C1851.1 1634.7 1856.5 1633.5 1862.2 1633C1905.4 1629.2 1943.7 1665.5 1947.8 1714C1950.2 1743.4 1939.5 1770.5 1921.1 1788.2Z" fill="white"/>
</svg>
