<svg width="1000" height="773" viewBox="0 0 1000 773" fill="none" xmlns="http://www.w3.org/2000/svg">
<path d="M702.52 318.88H759.35C759.88 318.88 760.389 319.091 760.764 319.466C761.139 319.841 761.35 320.35 761.35 320.88V348.88C761.35 349.41 761.139 349.919 760.764 350.294C760.389 350.669 759.88 350.88 759.35 350.88H702.52C701.99 350.88 701.481 350.669 701.106 350.294C700.731 349.919 700.52 349.41 700.52 348.88V320.88C700.52 320.35 700.731 319.841 701.106 319.466C701.481 319.091 701.99 318.88 702.52 318.88Z" stroke="#AADAF1" stroke-width="2" stroke-linecap="round" stroke-linejoin="round"/>
<path d="M733 286.82H789.8C790.33 286.82 790.839 287.031 791.214 287.406C791.589 287.781 791.8 288.29 791.8 288.82V316.82C791.8 317.35 791.589 317.859 791.214 318.234C790.839 318.609 790.33 318.82 789.8 318.82H733C732.47 318.82 731.961 318.609 731.586 318.234C731.211 317.859 731 317.35 731 316.82V288.82C731 288.29 731.211 287.781 731.586 287.406C731.961 287.031 732.47 286.82 733 286.82Z" stroke="#AADAF1" stroke-width="2" stroke-linecap="round" stroke-linejoin="round"/>
<path d="M763.41 318.88H820.25C820.78 318.88 821.289 319.091 821.664 319.466C822.039 319.841 822.25 320.35 822.25 320.88V348.88C822.25 349.41 822.039 349.919 821.664 350.294C821.289 350.669 820.78 350.88 820.25 350.88H763.41C762.88 350.88 762.371 350.669 761.996 350.294C761.621 349.919 761.41 349.41 761.41 348.88V320.88C761.41 320.35 761.621 319.841 761.996 319.466C762.371 319.091 762.88 318.88 763.41 318.88Z" stroke="#AADAF1" stroke-width="2" stroke-linecap="round" stroke-linejoin="round"/>
<path d="M673 351H729.87C730.4 351 730.909 351.211 731.284 351.586C731.659 351.961 731.87 352.47 731.87 353V381C731.87 381.53 731.659 382.039 731.284 382.414C730.909 382.789 730.4 383 729.87 383H673C672.47 383 671.961 382.789 671.586 382.414C671.211 382.039 671 381.53 671 381V353C671 352.47 671.211 351.961 671.586 351.586C671.961 351.211 672.47 351 673 351Z" stroke="#AADAF1" stroke-width="2" stroke-linecap="round" stroke-linejoin="round"/>
<path fill-rule="evenodd" clip-rule="evenodd" d="M782.82 674.61H812.41V703.68H782.82V674.61Z" fill="#EDBA9D"/>
<path fill-rule="evenodd" clip-rule="evenodd" d="M894 673.77H923.6V702.83H894V673.77Z" fill="#EDBA9D"/>
<path fill-rule="evenodd" clip-rule="evenodd" d="M730.34 111.58L750 107.46C751.352 107.172 752.764 107.431 753.926 108.18C755.087 108.93 755.905 110.109 756.2 111.46L764.29 148.96C764.43 149.624 764.438 150.309 764.313 150.976C764.188 151.643 763.932 152.279 763.56 152.847C763.189 153.414 762.708 153.903 762.147 154.285C761.586 154.666 760.955 154.933 760.29 155.07L740.65 159.2C739.298 159.488 737.886 159.229 736.724 158.48C735.563 157.73 734.745 156.551 734.45 155.2L726.32 117.7C726.18 117.034 726.173 116.347 726.299 115.678C726.425 115.009 726.683 114.372 727.056 113.803C727.43 113.235 727.913 112.745 728.476 112.364C729.04 111.982 729.673 111.716 730.34 111.58Z" fill="#9B9B9B"/>
<path fill-rule="evenodd" clip-rule="evenodd" d="M736.71 172C734.29 168.17 716.06 132.58 721.71 129.56C727.36 126.54 730.51 129.69 731.89 132.96C734.89 129.77 741.08 125.96 743.64 128.74C746.64 131.93 744.15 137.03 741.9 139.02C744.47 138.12 746.84 137.59 748.9 140.47C751.53 144.05 748.15 154.3 746.35 155.84L755.85 164.84C755.85 164.84 739.12 175.79 736.71 172Z" fill="#EDBA9D"/>
<path fill-rule="evenodd" clip-rule="evenodd" d="M898.86 391.35C898.86 375.79 914.4 363.18 933.58 363.18C952.76 363.18 968.29 375.79 968.29 391.35C968.29 406.91 952.75 419.52 933.58 419.52C914.41 419.52 898.86 406.91 898.86 391.35Z" fill="#E46E2D"/>
<path fill-rule="evenodd" clip-rule="evenodd" d="M869 70C895.73 70 909 94.32 910.28 102.77C911.56 111.22 909.91 129.02 912.28 136.15C918.86 155.55 942.82 166.04 942.82 185.67C942.82 231.09 892.82 217.94 877.61 217.36C862.4 216.78 822.36 215.5 822.36 188.25C822.36 177.41 829.73 177.41 829.86 163.31C829.97 151.39 823.31 148.02 823.31 119.46C823.38 107.78 839.23 69.86 869 70Z" fill="black"/>
<path fill-rule="evenodd" clip-rule="evenodd" d="M831.51 306.28C830.79 298.52 826.11 220.28 849.65 188.28C848.868 185.689 848.29 183.041 847.92 180.36C839.29 186.58 807.02 219.36 802.92 224.81C799.19 220.07 759 163.75 757 163.08C755 162.41 735.36 171.53 734.93 173.62C734.5 175.71 782.77 268.79 794.93 272.71C800.03 274.35 807.23 269.32 809.48 268.59C809.79 273.59 764.76 404.59 807.74 405.59C833.29 373.72 832.22 314 831.51 306.28Z" fill="#FF8F51"/>
<path fill-rule="evenodd" clip-rule="evenodd" d="M820.83 330.05L761 678.25L813.86 678.03L853.12 511.47L872.76 680.84L923.46 680.19L926.93 330.49L820.83 330.05Z" fill="#C4C4C4"/>
<path fill-rule="evenodd" clip-rule="evenodd" d="M899.77 338.36C894.28 339.53 825.29 338.13 818.99 334.62C812.69 331.11 813.99 319.74 829.52 315.9C824.02 314.53 812.34 307.83 828.09 305.48C830.9 277.33 818.7 174.28 867.21 172.48C901.5 167.43 907.21 197.54 907.21 197.54C907.21 197.54 905.26 337.19 899.77 338.36Z" fill="#FDDB63"/>
<path fill-rule="evenodd" clip-rule="evenodd" d="M867.2 83C848.77 83 833.83 100.37 833.83 121.79C833.83 143.21 848.77 160.54 867.2 160.54C874.991 160.418 882.438 157.307 888 151.85C887.31 142.13 887.22 132.26 888.72 127.1C891.04 120.7 890.2 123.38 887.82 123.1L889.91 121.32C889.91 116.87 890.65 119.91 895.1 119.91L900.38 119.69C899.47 99.27 885 83 867.2 83Z" fill="#EDBA9D"/>
<path fill-rule="evenodd" clip-rule="evenodd" d="M829.1 115C836.24 113.12 841.83 109.67 847.99 98.7C855.33 105.45 861.57 105.58 872.47 103.44C871.83 108.77 871.31 114.8 878.32 115.52C885.33 116.24 906.05 125.26 906.05 125.26L905.05 101.62L886.76 81.12L865.4 77.22L846.57 86.05L834.81 101.31C834.81 101.31 822 116.83 829.1 115Z" fill="black"/>
<path fill-rule="evenodd" clip-rule="evenodd" d="M876.42 118.08C876.42 115.204 877.273 112.392 878.87 110C880.467 107.608 882.738 105.743 885.395 104.64C888.052 103.538 890.976 103.248 893.798 103.807C896.619 104.366 899.212 105.749 901.248 107.781C903.284 109.813 904.672 112.403 905.237 115.223C905.802 118.044 905.518 120.968 904.421 123.627C903.324 126.286 901.464 128.561 899.075 130.163C896.687 131.766 893.876 132.624 891 132.63C889.086 132.635 887.191 132.263 885.421 131.534C883.652 130.805 882.044 129.734 880.689 128.382C879.335 127.03 878.26 125.424 877.528 123.657C876.795 121.889 876.419 119.994 876.42 118.08Z" fill="#EDBA9D"/>
<path fill-rule="evenodd" clip-rule="evenodd" d="M862.14 155.21C863.55 162.08 862.4 170.98 860.73 177.33C865.66 180.15 885.4 181.12 891.4 176.8C889.11 168.43 885.62 137.8 888.73 127.11C880.9 126.43 860.73 148.33 862.14 155.21Z" fill="#EDBA9D"/>
<path fill-rule="evenodd" clip-rule="evenodd" d="M900.62 366C898.469 369.541 896.132 372.966 893.62 376.26C893.62 376.26 887.05 374.18 885.25 376.59C883.45 379 871.44 394.19 877.34 399.36C883.24 404.53 889.86 391.62 891.72 389.94C897.844 395.519 903.619 401.47 909.01 407.76C909.01 407.76 908.96 398.67 909.96 395.47C910.96 392.27 917.12 383.73 919.18 381.47C921.24 379.21 904 360.32 900.62 366Z" fill="#EDBA9D"/>
<path fill-rule="evenodd" clip-rule="evenodd" d="M893.51 177.38C890.38 185.28 886.64 193 876.95 198.66C876.4 207.51 884.66 328.82 891.51 341.38C894.282 346.303 897.725 350.816 901.74 354.79C899.63 360.45 897.74 365.58 898.52 367.22C899.52 369.36 916.89 384.22 919.24 383.57C920.78 383.15 925.15 378.63 928.83 374.57C945.83 384.37 961.52 391.35 961.83 400.5C961.83 407.04 959.63 409.09 956.94 412.24C960.82 410.32 970.13 400.51 970.33 388.44C970.58 373.22 955.91 346.6 953.33 339.85C958.12 334.41 974.88 311.36 978.83 291.1C968.69 251.71 928.64 178.47 893.51 177.38Z" fill="#FF8F51"/>
<path d="M906.06 249.55C909.5 255.02 933.39 291.07 933.39 291.07C933.39 291.07 911 337 903.25 353" stroke="#FF3274" stroke-width="2" stroke-linecap="round" stroke-linejoin="round"/>
<path d="M968.05 314.88C963.841 312.833 960.338 309.577 957.989 305.529C955.639 301.481 954.551 296.824 954.862 292.154C955.174 287.484 956.871 283.013 959.736 279.312C962.602 275.612 966.506 272.85 970.95 271.38" stroke="#FF3274" stroke-width="2" stroke-linecap="round" stroke-linejoin="round"/>
<path d="M941.68 283.06L933.38 291.06" stroke="#FF3274" stroke-width="2" stroke-linecap="round" stroke-linejoin="round"/>
<path d="M943.63 295.79L933.38 290.47" stroke="#FF3274" stroke-width="2" stroke-linecap="round" stroke-linejoin="round"/>
<path d="M903.55 358.39C905.87 361.03 920.55 371.46 924.55 373.16" stroke="#FF3274" stroke-width="2" stroke-linecap="round" stroke-linejoin="round"/>
<path d="M781.48 257.38C783.678 255.094 786.509 253.516 789.609 252.85C792.71 252.185 795.938 252.46 798.881 253.643C801.824 254.825 804.346 256.86 806.124 259.485C807.902 262.111 808.855 265.209 808.86 268.38V268.75" stroke="#FF3274" stroke-width="2" stroke-linecap="round" stroke-linejoin="round"/>
<path d="M802.87 224.79L794.66 237" stroke="#FF3274" stroke-width="2" stroke-linecap="round" stroke-linejoin="round"/>
<path d="M810.19 234.39L803.12 224.58" stroke="#FF3274" stroke-width="2" stroke-linecap="round" stroke-linejoin="round"/>
<path d="M763.21 170.65L740.27 185.26" stroke="#FF3274" stroke-width="2" stroke-linecap="round" stroke-linejoin="round"/>
<path d="M853.06 511.63C851.62 501.87 846.14 418.32 850 389.24" stroke="#737999" stroke-width="2" stroke-linecap="round" stroke-linejoin="round"/>
<path d="M909.53 534L924.94 527.86L908.36 517.52" stroke="#737999" stroke-width="2" stroke-linecap="round" stroke-linejoin="round"/>
<path d="M831.51 536.85L847.68 534.46L837.16 523.16" stroke="#737999" stroke-width="2" stroke-linecap="round" stroke-linejoin="round"/>
<path d="M817.07 351.92C822.07 352.6 870.07 355.25 901.07 353.75" stroke="#737999" stroke-width="2" stroke-linecap="round" stroke-linejoin="round"/>
<path d="M764.38 658.39L818.82 656.85" stroke="#737999" stroke-width="2" stroke-linecap="round" stroke-linejoin="round"/>
<path d="M870.56 662.17L923.63 660.66" stroke="#737999" stroke-width="2" stroke-linecap="round" stroke-linejoin="round"/>
<path d="M891.55 390.08L913.73 412.47" stroke="#737999" stroke-width="2" stroke-linecap="round" stroke-linejoin="round"/>
<path d="M878.13 376.54L882.28 380.72" stroke="#737999" stroke-width="2" stroke-linecap="round" stroke-linejoin="round"/>
<path d="M888.43 680.64L873 354.17" stroke="#737999" stroke-width="2" stroke-linecap="round" stroke-linejoin="round"/>
<path d="M849.52 456.94L796 678.1" stroke="#737999" stroke-width="2" stroke-linecap="round" stroke-linejoin="round"/>
<path fill-rule="evenodd" clip-rule="evenodd" d="M860.73 121.65C860.73 119.65 861.55 118.08 862.57 118.08C863.59 118.08 864.42 119.68 864.42 121.65C864.42 123.62 863.59 125.21 862.57 125.21C861.55 125.21 860.73 123.61 860.73 121.65Z" fill="#B5545C"/>
<path fill-rule="evenodd" clip-rule="evenodd" d="M839.59 121.65C839.59 119.65 840.42 118.08 841.44 118.08C842.46 118.08 843.28 119.68 843.28 121.65C843.28 123.62 842.46 125.21 841.44 125.21C840.42 125.21 839.59 123.61 839.59 121.65Z" fill="#B5545C"/>
<path d="M850.13 122.31C850.43 125.09 849.83 131.31 847.73 134.03" stroke="#B5545C" stroke-width="2" stroke-linecap="round" stroke-linejoin="round"/>
<path d="M863.74 139.55C863.833 139.916 863.88 140.292 863.88 140.67C863.884 141.389 863.713 142.097 863.381 142.735C863.049 143.372 862.566 143.918 861.975 144.326C861.383 144.735 860.701 144.992 859.987 145.076C859.274 145.16 858.55 145.069 857.88 144.81" stroke="#B5545C" stroke-width="2" stroke-linecap="round" stroke-linejoin="round"/>
<path d="M862.61 160.14C864.128 160.385 865.663 160.509 867.2 160.51C871.173 160.505 875.101 159.667 878.73 158.05" stroke="#B5545C" stroke-width="2" stroke-linecap="round" stroke-linejoin="round"/>
<path d="M882 116.33C882.275 114.552 883.055 112.89 884.246 111.541C885.438 110.192 886.991 109.213 888.721 108.72C890.452 108.227 892.288 108.241 894.011 108.759C895.734 109.278 897.273 110.28 898.444 111.646C899.615 113.012 900.37 114.686 900.619 116.468C900.868 118.25 900.6 120.067 899.848 121.702C899.097 123.337 897.892 124.722 896.376 125.693C894.861 126.664 893.1 127.18 891.3 127.18C890.4 127.176 889.505 127.049 888.64 126.8" stroke="#B5545C" stroke-width="2" stroke-linecap="round" stroke-linejoin="round"/>
<path d="M951.46 341.89L930.61 371.89" stroke="#FF3274" stroke-width="2" stroke-linecap="round" stroke-linejoin="round"/>
<path fill-rule="evenodd" clip-rule="evenodd" d="M941.09 76.17H952.63C953.17 76.17 953.63 76.81 953.63 77.6V84.79C953.63 85.58 953.18 86.21 952.63 86.21H941.09C940.55 86.21 940.09 85.58 940.09 84.79V77.6C940.1 76.81 940.55 76.17 941.09 76.17Z" fill="#FF3274"/>
<path fill-rule="evenodd" clip-rule="evenodd" d="M958.61 81.65V86.07C958.61 86.2 958.52 86.25 958.42 86.19L954.58 84L950.75 81.79C950.64 81.73 950.64 81.63 950.75 81.57L954.58 79.35L958.42 77.14C958.439 77.1263 958.461 77.1183 958.484 77.1171C958.508 77.1159 958.531 77.1214 958.551 77.1331C958.571 77.1447 958.587 77.162 958.598 77.1828C958.608 77.2035 958.613 77.2269 958.61 77.25V81.65Z" fill="#FF3274"/>
<path d="M932.36 81.19C932.36 77.8277 933.357 74.541 935.225 71.7453C937.093 68.9497 939.748 66.7707 942.854 65.4841C945.961 64.1974 949.379 63.8607 952.677 64.5167C955.974 65.1726 959.003 66.7917 961.381 69.1692C963.758 71.5467 965.377 74.5758 966.033 77.8735C966.689 81.1711 966.353 84.5893 965.066 87.6956C963.779 90.802 961.6 93.457 958.805 95.325C956.009 97.193 952.722 98.19 949.36 98.19C944.851 98.19 940.527 96.3989 937.339 93.2108C934.151 90.0227 932.36 85.6987 932.36 81.19Z" stroke="#FF3274" stroke-width="2" stroke-linecap="round" stroke-linejoin="round"/>
<path d="M710.44 40H954C960.561 40 966.854 42.6065 971.494 47.2462C976.133 51.8858 978.74 58.1785 978.74 64.74V188.81C978.74 195.371 976.133 201.664 971.494 206.304C966.854 210.943 960.561 213.55 954 213.55H710.44C703.879 213.55 697.586 210.943 692.946 206.304C688.307 201.664 685.7 195.371 685.7 188.81V64.74C685.7 58.1785 688.307 51.8858 692.946 47.2462C697.586 42.6065 703.879 40 710.44 40Z" stroke="#9B9B9B" stroke-width="2" stroke-linecap="round" stroke-linejoin="round"/>
<path d="M977.18 55.87H687.55" stroke="#9B9B9B" stroke-width="2" stroke-linecap="round" stroke-linejoin="round"/>
<path d="M703.49 48.22C703.49 47.5234 703.697 46.8424 704.084 46.2634C704.471 45.6843 705.021 45.2331 705.665 44.967C706.309 44.7009 707.017 44.6318 707.7 44.7684C708.383 44.905 709.011 45.2413 709.503 45.7345C709.994 46.2278 710.329 46.856 710.464 47.5394C710.598 48.2229 710.527 48.931 710.259 49.574C709.991 50.217 709.539 50.7661 708.958 51.1516C708.378 51.5372 707.697 51.742 707 51.74C706.538 51.74 706.081 51.6489 705.654 51.4719C705.228 51.2948 704.841 51.0354 704.515 50.7084C704.188 50.3814 703.93 49.9933 703.754 49.5663C703.579 49.1393 703.489 48.6818 703.49 48.22Z" stroke="#FF3274" stroke-width="2" stroke-linecap="round" stroke-linejoin="round"/>
<path d="M717.36 48.22C717.36 47.5238 717.566 46.8433 717.953 46.2644C718.34 45.6855 718.89 45.2344 719.533 44.968C720.176 44.7015 720.884 44.6318 721.567 44.7676C722.25 44.9035 722.877 45.2387 723.369 45.731C723.861 46.2233 724.197 46.8505 724.332 47.5333C724.468 48.2161 724.398 48.9239 724.132 49.5671C723.866 50.2103 723.414 50.76 722.836 51.1468C722.257 51.5336 721.576 51.74 720.88 51.74C719.946 51.74 719.051 51.3692 718.391 50.709C717.731 50.0489 717.36 49.1536 717.36 48.22Z" stroke="#FF3274" stroke-width="2" stroke-linecap="round" stroke-linejoin="round"/>
<path d="M731.24 48.22C731.24 47.5238 731.446 46.8433 731.833 46.2644C732.22 45.6855 732.77 45.2344 733.413 44.968C734.056 44.7015 734.764 44.6318 735.447 44.7676C736.13 44.9035 736.757 45.2387 737.249 45.731C737.741 46.2233 738.077 46.8505 738.212 47.5333C738.348 48.2161 738.278 48.9239 738.012 49.5671C737.746 50.2103 737.294 50.76 736.716 51.1468C736.137 51.5336 735.456 51.74 734.76 51.74C734.297 51.7413 733.839 51.6512 733.411 51.4748C732.984 51.2983 732.595 51.0391 732.268 50.712C731.941 50.3848 731.682 49.9963 731.505 49.5686C731.329 49.141 731.239 48.6826 731.24 48.22Z" stroke="#FF3274" stroke-width="2" stroke-linecap="round" stroke-linejoin="round"/>
<path fill-rule="evenodd" clip-rule="evenodd" d="M894 691.71L923.6 691.46L923.31 733.7L831.81 733.12C832.16 724.43 848.99 708.99 869.51 705.93C890.03 702.87 894 694.47 894 691.71Z" fill="#6A3416"/>
<path d="M848.4 713.76C852.111 716.95 855.347 720.654 858.01 724.76" stroke="#DAD1D1" stroke-width="2" stroke-linecap="round" stroke-linejoin="round"/>
<path d="M862.3 708.26C866.016 711.445 869.253 715.15 871.91 719.26" stroke="#DAD1D1" stroke-width="2" stroke-linecap="round" stroke-linejoin="round"/>
<path d="M869.8 707.39C843.93 679.46 893.35 672.32 869.89 707.39" stroke="#DAD1D1" stroke-width="2" stroke-linecap="round" stroke-linejoin="round"/>
<path d="M870 707.34C897.62 674.71 913.37 728.77 870 707.44" stroke="#DAD1D1" stroke-width="2" stroke-linecap="round" stroke-linejoin="round"/>
<path d="M923.58 698.79H889.43" stroke="#DAD1D1" stroke-width="2" stroke-linecap="round" stroke-linejoin="round"/>
<path d="M923.34 733.58L832.23 733.12" stroke="#4E4242" stroke-width="2" stroke-linecap="round" stroke-linejoin="round"/>
<path fill-rule="evenodd" clip-rule="evenodd" d="M782.82 692.56L812.41 692.31L812.12 734.55L720.63 734C720.98 725.31 737.81 709.87 758.33 706.81C778.85 703.75 782.82 695.32 782.82 692.56Z" fill="#6A3416"/>
<path d="M737.19 714.61C740.901 717.8 744.137 721.504 746.8 725.61" stroke="#DAD1D1" stroke-width="2" stroke-linecap="round" stroke-linejoin="round"/>
<path d="M751.09 709.11C754.806 712.295 758.042 716 760.7 720.11" stroke="#DAD1D1" stroke-width="2" stroke-linecap="round" stroke-linejoin="round"/>
<path d="M758.59 708.23C732.72 680.31 782.14 673.17 758.68 708.23" stroke="#DAD1D1" stroke-width="2" stroke-linecap="round" stroke-linejoin="round"/>
<path d="M758.78 708.19C786.4 675.55 802.14 729.62 758.78 708.29" stroke="#DAD1D1" stroke-width="2" stroke-linecap="round" stroke-linejoin="round"/>
<path d="M812.36 699.64H778.21" stroke="#DAD1D1" stroke-width="2" stroke-linecap="round" stroke-linejoin="round"/>
<path d="M812.12 734.43L721 734" stroke="#4E4242" stroke-width="2" stroke-linecap="round" stroke-linejoin="round"/>
<path fill-rule="evenodd" clip-rule="evenodd" d="M726.46 151.07C725.12 147.89 725.71 135.84 733.02 131.84L726.46 151.07Z" fill="#F77F89"/>
<path d="M726.46 151.07C725.12 147.89 725.71 135.84 733.02 131.84" stroke="#B5545C" stroke-width="2" stroke-linecap="round" stroke-linejoin="round"/>
<path fill-rule="evenodd" clip-rule="evenodd" d="M736.3 154.92C735.48 150.92 737.62 142.51 741.97 139.54L736.3 154.92Z" fill="#F77F89"/>
<path d="M736.3 154.92C735.48 150.92 737.62 142.51 741.97 139.54" stroke="#B5545C" stroke-width="2" stroke-linecap="round" stroke-linejoin="round"/>
<path d="M877.08 198.59C883.52 193.74 890.83 184.44 893.35 177.79" stroke="#FF3274" stroke-width="2" stroke-linecap="round" stroke-linejoin="round"/>
<path d="M834.32 316.83C853.21 320.92 875.71 319.49 886.71 318.26" stroke="#4C4FD9" stroke-width="2" stroke-linecap="round" stroke-linejoin="round"/>
<path opacity="0.26" fill-rule="evenodd" clip-rule="evenodd" d="M710.57 40H954.15C960.711 40 967.004 42.6065 971.644 47.2462C976.283 51.8858 978.89 58.1785 978.89 64.74V188.81C978.89 195.371 976.283 201.664 971.644 206.304C967.004 210.943 960.711 213.55 954.15 213.55H710.57C704.009 213.55 697.716 210.943 693.076 206.304C688.437 201.664 685.83 195.371 685.83 188.81V64.74C685.83 58.1785 688.437 51.8858 693.076 47.2462C697.716 42.6065 704.009 40 710.57 40Z" fill="white" fill-opacity="0.6"/>
<path fill-rule="evenodd" clip-rule="evenodd" d="M302.44 403.19C302.44 396.39 313.14 390.89 326.33 390.89C339.52 390.89 350.22 396.39 350.22 403.19C350.22 409.99 339.52 415.48 326.33 415.48C313.14 415.48 302.44 410 302.44 403.19Z" fill="#8DC5E0"/>
<path fill-rule="evenodd" clip-rule="evenodd" d="M265.11 689L272.36 712.34L302.44 705.47L299.49 675.79L265.11 689Z" fill="#FF3274"/>
<path fill-rule="evenodd" clip-rule="evenodd" d="M185.27 405.94H642.75C643.922 405.94 645.047 406.406 645.875 407.235C646.704 408.063 647.17 409.188 647.17 410.36V418.36C647.17 419.532 646.704 420.657 645.875 421.485C645.047 422.314 643.922 422.78 642.75 422.78H185.27C184.098 422.78 182.974 422.314 182.145 421.485C181.316 420.657 180.85 419.532 180.85 418.36V410.36C180.85 409.188 181.316 408.063 182.145 407.235C182.974 406.406 184.098 405.94 185.27 405.94Z" fill="#AD836C"/>
<path d="M247.55 423.18L155 707" stroke="#AD836C" stroke-width="2" stroke-linecap="round" stroke-linejoin="round"/>
<path d="M322.66 423.18L230.15 707" stroke="#AD836C" stroke-width="2" stroke-linecap="round" stroke-linejoin="round"/>
<path d="M322.66 423.18L415.16 707" stroke="#AD836C" stroke-width="2" stroke-linecap="round" stroke-linejoin="round"/>
<path d="M247.55 423.18L340.05 707" stroke="#AD836C" stroke-width="2" stroke-linecap="round" stroke-linejoin="round"/>
<path fill-rule="evenodd" clip-rule="evenodd" d="M164.78 660.54L155.04 682.54L182 694.09L194 671.85L164.78 660.54Z" fill="#FF3274"/>
<path d="M171.63 674.71C171.63 673.992 171.843 673.29 172.242 672.693C172.641 672.096 173.208 671.631 173.871 671.356C174.534 671.082 175.264 671.01 175.968 671.15C176.672 671.29 177.319 671.636 177.827 672.143C178.334 672.651 178.68 673.298 178.82 674.002C178.96 674.706 178.888 675.436 178.614 676.099C178.339 676.762 177.874 677.329 177.277 677.728C176.68 678.127 175.978 678.34 175.26 678.34C174.783 678.341 174.31 678.248 173.869 678.066C173.428 677.884 173.028 677.617 172.69 677.28C172.353 676.942 172.086 676.542 171.904 676.101C171.722 675.66 171.629 675.187 171.63 674.71Z" stroke="white" stroke-width="2" stroke-linecap="round" stroke-linejoin="round"/>
<path d="M157.9 679.44C157.9 678.72 158.114 678.015 158.514 677.417C158.915 676.818 159.484 676.351 160.149 676.076C160.815 675.801 161.547 675.729 162.254 675.871C162.96 676.012 163.609 676.36 164.117 676.87C164.626 677.38 164.972 678.029 165.111 678.736C165.251 679.443 165.177 680.175 164.9 680.84C164.623 681.505 164.155 682.073 163.555 682.471C162.955 682.87 162.25 683.082 161.53 683.08C160.566 683.077 159.643 682.693 158.963 682.01C158.282 681.328 157.9 680.404 157.9 679.44Z" stroke="white" stroke-width="2" stroke-linecap="round" stroke-linejoin="round"/>
<path d="M176.72 685.83C176.72 685.112 176.933 684.41 177.332 683.813C177.731 683.216 178.298 682.751 178.961 682.476C179.624 682.202 180.354 682.13 181.058 682.27C181.762 682.41 182.409 682.756 182.917 683.263C183.424 683.771 183.77 684.418 183.91 685.122C184.05 685.826 183.978 686.556 183.704 687.219C183.429 687.882 182.964 688.449 182.367 688.848C181.77 689.247 181.068 689.46 180.35 689.46C179.387 689.46 178.464 689.078 177.783 688.397C177.102 687.716 176.72 686.793 176.72 685.83Z" stroke="white" stroke-width="2" stroke-linecap="round" stroke-linejoin="round"/>
<path fill-rule="evenodd" clip-rule="evenodd" d="M90.89 450C157.1 431.35 252.08 441.68 272.57 470.13C279.89 480.29 277.41 496.19 275.57 502.18C273.73 508.17 196.25 674.4 196.25 674.4L161.51 661.19L195.65 526.19C195.65 526.19 82.66 452.3 90.89 450Z" fill="#C4C4C4"/>
<path d="M173.81 665.86L213.8 537" stroke="#8D8D8D" stroke-width="2" stroke-linecap="round" stroke-linejoin="round"/>
<path d="M165 647.33L202.28 661.33" stroke="#8D8D8D" stroke-width="2" stroke-linecap="round" stroke-linejoin="round"/>
<path fill-rule="evenodd" clip-rule="evenodd" d="M271.76 710.19L301.62 701.67C301.62 701.67 350.19 704.9 368.01 700.78C372.66 706.53 374.13 709.78 371.01 715.02C369.64 717.35 322.48 732.24 322.48 732.24L311.29 730.73L279.7 739L271.76 710.19Z" fill="#6A3416"/>
<path fill-rule="evenodd" clip-rule="evenodd" d="M274.63 736.36L305.31 727.93C305.701 727.817 306.111 727.782 306.516 727.827C306.921 727.873 307.313 727.997 307.669 728.194C308.026 728.391 308.34 728.656 308.594 728.975C308.848 729.293 309.037 729.659 309.15 730.05L310.81 736.05C310.914 736.445 310.939 736.856 310.883 737.26C310.828 737.665 310.693 738.054 310.487 738.406C310.281 738.758 310.007 739.066 309.681 739.312C309.356 739.558 308.985 739.738 308.59 739.84L277.91 748.27C277.519 748.383 277.109 748.418 276.704 748.373C276.299 748.327 275.907 748.203 275.551 748.006C275.194 747.809 274.88 747.544 274.626 747.225C274.372 746.907 274.183 746.542 274.07 746.15L272.41 740.15C272.306 739.755 272.281 739.344 272.337 738.94C272.392 738.536 272.527 738.146 272.733 737.794C272.939 737.442 273.213 737.134 273.539 736.888C273.864 736.642 274.235 736.462 274.63 736.36Z" fill="#3C1B09"/>
<path d="M285.1 699.74C285.098 699.019 285.31 698.314 285.709 697.714C286.109 697.114 286.677 696.646 287.342 696.369C288.008 696.092 288.741 696.019 289.448 696.159C290.155 696.3 290.804 696.646 291.314 697.156C291.824 697.666 292.17 698.315 292.311 699.022C292.451 699.729 292.378 700.462 292.101 701.128C291.824 701.793 291.356 702.362 290.756 702.761C290.156 703.16 289.451 703.372 288.73 703.37C287.767 703.37 286.844 702.988 286.163 702.307C285.482 701.626 285.1 700.703 285.1 699.74Z" stroke="white" stroke-width="2" stroke-linecap="round" stroke-linejoin="round"/>
<path d="M291.61 688C291.608 687.279 291.82 686.574 292.219 685.974C292.618 685.374 293.187 684.906 293.852 684.629C294.518 684.352 295.251 684.279 295.958 684.419C296.665 684.56 297.314 684.906 297.824 685.416C298.334 685.926 298.68 686.575 298.821 687.282C298.961 687.989 298.888 688.722 298.611 689.388C298.334 690.053 297.866 690.621 297.266 691.021C296.666 691.42 295.961 691.632 295.24 691.63C294.278 691.627 293.356 691.244 292.676 690.564C291.996 689.884 291.613 688.962 291.61 688Z" stroke="white" stroke-width="2" stroke-linecap="round" stroke-linejoin="round"/>
<path d="M271.76 697.15C271.76 696.432 271.973 695.73 272.372 695.133C272.771 694.536 273.338 694.071 274.001 693.796C274.664 693.522 275.394 693.45 276.098 693.59C276.802 693.73 277.449 694.076 277.957 694.583C278.464 695.091 278.81 695.738 278.95 696.442C279.09 697.146 279.018 697.876 278.744 698.539C278.469 699.202 278.004 699.769 277.407 700.168C276.81 700.567 276.108 700.78 275.39 700.78C274.427 700.78 273.504 700.398 272.823 699.717C272.142 699.036 271.76 698.113 271.76 697.15Z" stroke="white" stroke-width="2" stroke-linecap="round" stroke-linejoin="round"/>
<path fill-rule="evenodd" clip-rule="evenodd" d="M36.63 531.63H188.43C193.636 531.63 198.629 533.698 202.311 537.379C205.992 541.061 208.06 546.054 208.06 551.26C208.06 556.466 205.992 561.459 202.311 565.141C198.629 568.822 193.636 570.89 188.43 570.89H36.63C31.4238 570.89 26.4308 568.822 22.7495 565.141C19.0682 561.459 17 556.466 17 551.26C17 546.054 19.0682 541.061 22.7495 537.379C26.4308 533.698 31.4238 531.63 36.63 531.63Z" fill="#737999"/>
<path fill-rule="evenodd" clip-rule="evenodd" d="M106.17 557.48H118.89C119.898 557.48 120.864 557.88 121.577 558.593C122.29 559.306 122.69 560.272 122.69 561.28V701.88C122.69 702.888 122.29 703.854 121.577 704.567C120.864 705.28 119.898 705.68 118.89 705.68H106.17C105.162 705.68 104.196 705.28 103.483 704.567C102.77 703.854 102.37 702.888 102.37 701.88V561.28C102.37 560.272 102.77 559.306 103.483 558.593C104.196 557.88 105.162 557.48 106.17 557.48Z" fill="#AD836C"/>
<path fill-rule="evenodd" clip-rule="evenodd" d="M101.05 660.54H124.05C125.71 660.54 127.303 661.2 128.476 662.374C129.65 663.548 130.31 665.14 130.31 666.8V700.74C130.31 701.566 130.146 702.384 129.829 703.147C129.511 703.91 129.045 704.602 128.459 705.184C127.872 705.766 127.176 706.226 126.411 706.538C125.646 706.85 124.826 707.007 124 707H101C99.3397 707 97.7475 706.34 96.5735 705.167C95.3995 703.993 94.74 702.4 94.74 700.74V666.8C94.74 665.974 94.9035 665.156 95.2212 664.393C95.539 663.63 96.0045 662.938 96.5911 662.356C97.1777 661.774 97.8738 661.314 98.639 661.002C99.4043 660.69 100.224 660.533 101.05 660.54Z" fill="#AADAF1"/>
<path d="M36.32 731.17V724.54C36.32 719.888 38.168 715.427 41.4574 712.137C44.7467 708.848 49.2081 707 53.86 707H112.53" stroke="#AADAF1" stroke-width="2" stroke-linecap="round" stroke-linejoin="round"/>
<path d="M188.57 731.17V724.54C188.569 722.234 188.113 719.952 187.229 717.822C186.346 715.693 185.051 713.759 183.419 712.13C181.787 710.501 179.851 709.209 177.72 708.329C175.589 707.449 173.306 706.997 171 707H112.35" stroke="#AADAF1" stroke-width="2" stroke-linecap="round" stroke-linejoin="round"/>
<path d="M83.78 731.17V723.17C83.78 714.24 88.43 707 94.16 707H130.9C136.63 707 141.28 714.24 141.28 723.17V731.17" stroke="#AADAF1" stroke-width="2" stroke-linecap="round" stroke-linejoin="round"/>
<path d="M26.71 740.79C26.71 738.889 27.2736 737.031 28.3296 735.451C29.3855 733.871 30.8864 732.639 32.6424 731.912C34.3984 731.184 36.3307 730.994 38.1948 731.365C40.059 731.735 41.7713 732.651 43.1153 733.995C44.4593 735.339 45.3745 737.051 45.7453 738.915C46.1161 740.779 45.9258 742.712 45.1985 744.468C44.4711 746.224 43.2394 747.724 41.659 748.78C40.0787 749.836 38.2207 750.4 36.32 750.4C33.7721 750.397 31.3293 749.384 29.5276 747.582C27.726 745.781 26.7126 743.338 26.71 740.79Z" stroke="#AADAF1" stroke-width="2" stroke-linecap="round" stroke-linejoin="round"/>
<path d="M74.17 740.79C74.17 738.889 74.7336 737.031 75.7896 735.451C76.8455 733.871 78.3464 732.639 80.1024 731.912C81.8584 731.184 83.7906 730.994 85.6548 731.365C87.519 731.735 89.2313 732.651 90.5753 733.995C91.9193 735.339 92.8345 737.051 93.2053 738.915C93.5761 740.779 93.3858 742.712 92.6585 744.468C91.9311 746.224 90.6994 747.724 89.119 748.78C87.5387 749.836 85.6807 750.4 83.78 750.4C81.2321 750.397 78.7893 749.384 76.9876 747.582C75.186 745.781 74.1726 743.338 74.17 740.79Z" stroke="#AADAF1" stroke-width="2" stroke-linecap="round" stroke-linejoin="round"/>
<path d="M141.28 731.17C143.183 731.168 145.044 731.731 146.627 732.786C148.211 733.842 149.445 735.344 150.175 737.102C150.904 738.859 151.096 740.794 150.726 742.661C150.356 744.527 149.441 746.242 148.096 747.589C146.751 748.935 145.037 749.852 143.17 750.224C141.304 750.596 139.369 750.406 137.611 749.679C135.852 748.951 134.349 747.718 133.292 746.136C132.234 744.553 131.67 742.693 131.67 740.79C131.67 738.24 132.682 735.795 134.484 733.991C136.286 732.187 138.73 731.173 141.28 731.17Z" stroke="#AADAF1" stroke-width="2" stroke-linecap="round" stroke-linejoin="round"/>
<path d="M179 740.79C179 738.889 179.564 737.031 180.62 735.451C181.676 733.871 183.176 732.639 184.932 731.912C186.688 731.184 188.621 730.994 190.485 731.365C192.349 731.735 194.061 732.651 195.405 733.995C196.749 735.339 197.665 737.051 198.035 738.915C198.406 740.779 198.216 742.712 197.488 744.468C196.761 746.224 195.529 747.724 193.949 748.78C192.369 749.836 190.511 750.4 188.61 750.4C186.062 750.397 183.619 749.384 181.818 747.582C180.016 745.781 179.003 743.338 179 740.79Z" stroke="#AADAF1" stroke-width="2" stroke-linecap="round" stroke-linejoin="round"/>
<path fill-rule="evenodd" clip-rule="evenodd" d="M42.32 410.87C-18.25 537.39 104 540.8 146.9 540.17C189.8 539.54 201.09 536.31 212.7 533.5C216.41 544.74 260.88 690.3 260.88 690.3L299.93 678.5C299.93 678.5 270.08 493.58 263.34 481.09C244.83 446.75 135.34 444.89 121.49 445.72C107.64 446.55 50 394.83 42.32 410.87Z" fill="#C4C4C4"/>
<path d="M46.1 428.16C4.60997 531.71 182.55 525.47 221.47 513.61C227.29 530.26 275.47 685.02 275.47 685.02" stroke="#8D8D8D" stroke-width="2" stroke-linecap="round" stroke-linejoin="round"/>
<path d="M271.11 513.8C258.591 511.224 247.309 504.493 239.095 494.7C230.882 484.907 226.218 472.627 225.86 459.85" stroke="#8D8D8D" stroke-width="2" stroke-linecap="round" stroke-linejoin="round"/>
<path d="M194.07 537.3C200.345 536.376 206.564 535.107 212.7 533.5C214.24 538.16 222.79 565.93 232.26 596.83" stroke="#8D8D8D" stroke-width="2" stroke-linecap="round" stroke-linejoin="round"/>
<path d="M270.82 511.78C267.56 495.51 264.82 483.91 263.34 481.09C245.94 448.83 148.18 445.23 124.99 445.61" stroke="#8D8D8D" stroke-width="2" stroke-linecap="round" stroke-linejoin="round"/>
<path d="M298.06 667.06L257.52 679.31" stroke="#8D8D8D" stroke-width="2" stroke-linecap="round" stroke-linejoin="round"/>
<path fill-rule="evenodd" clip-rule="evenodd" d="M115.67 214.68C115.67 210.582 116.885 206.575 119.163 203.168C121.44 199.76 124.676 197.104 128.463 195.536C132.25 193.968 136.416 193.559 140.436 194.359C144.455 195.159 148.147 197.134 151.045 200.032C153.942 202.931 155.915 206.624 156.713 210.644C157.511 214.664 157.1 218.83 155.53 222.616C153.96 226.402 151.303 229.637 147.894 231.913C144.485 234.188 140.478 235.402 136.38 235.4C133.659 235.4 130.966 234.864 128.452 233.823C125.939 232.781 123.656 231.255 121.732 229.331C119.809 227.406 118.284 225.122 117.244 222.608C116.203 220.095 115.669 217.401 115.67 214.68Z" fill="#6A3416"/>
<path fill-rule="evenodd" clip-rule="evenodd" d="M311.48 385.25C314.89 382.45 324.13 375.62 327.09 375.66C330.05 375.7 339.01 384.12 339.21 386.33C339.41 388.54 336.56 392.03 334.86 392.28C333.16 392.53 327.69 387.28 326.49 387.75C325.29 388.22 322.65 391.02 321.88 392.26C321.11 393.5 308.08 388 311.48 385.25Z" fill="#D7A183"/>
<path fill-rule="evenodd" clip-rule="evenodd" d="M189.28 330.35L209.74 351.23C209.74 351.23 225.22 318 236 300.42C233.82 297.28 230 284.77 230.49 282.42C230.98 280.07 242.24 257.89 244.96 259.18C247.68 260.47 250.22 264.8 248.83 269.18C250.44 263.41 253.16 255.43 255.56 254.64C257.96 253.85 263.01 254.89 262.79 258.94C263.94 256.29 265.97 254.43 268.29 254.33C270.29 254.24 274.37 255.95 274.65 258.47C274.99 261.62 270.49 269.14 269.94 270.21C272.04 267.35 272.02 267.21 273.28 267.21C275.81 267.3 280.09 271.06 278 276.49C275.91 281.92 265.58 307.26 257.58 308.34C257.95 313.26 234.11 381.91 234.11 381.91L197.99 380.47L171.68 345.67L189.28 330.35Z" fill="#D7A183"/>
<path fill-rule="evenodd" clip-rule="evenodd" d="M118.12 254.92C51.69 255 29.49 410.92 36.43 421.61C41.52 429.45 101.78 452.5 122.43 445.42C129.72 442.92 148.69 403.97 159.43 364.67C170.88 355.27 192.55 337.47 196.08 334.04C195.08 326.51 177.67 296.17 159.64 282.73C153.41 268.5 141.85 254.92 118.12 254.92Z" fill="#FF8F51"/>
<path fill-rule="evenodd" clip-rule="evenodd" d="M135.3 360.86C135.3 360.86 167.01 400.86 175.35 404.11C183.69 407.36 273.77 406.32 280.35 405.55C286.93 404.78 285.73 409.8 291.68 410.12C297.84 410.46 301.39 405.01 302.23 402.26C305.99 406.44 312.62 412.87 316.97 410.63C320.05 409.03 320.09 407.63 317.97 405.42C320.97 407.15 326.39 409.69 328.58 407.98C332.1 405.24 332.43 402.68 331.24 400.55C327.57 393.96 315.75 384.63 312.94 383.55C309.7 382.27 299.83 385.79 295.08 386.08C273.55 387.41 219.26 374.02 201.45 373.21C198.83 368.21 171.68 335.38 169.58 332.1C162.13 338.47 135.3 360.86 135.3 360.86Z" fill="#D7A183"/>
<path fill-rule="evenodd" clip-rule="evenodd" d="M126.45 222.85C126.448 216.627 128.292 210.543 131.748 205.368C135.204 200.193 140.117 196.159 145.866 193.777C151.615 191.394 157.942 190.77 164.045 191.984C170.149 193.198 175.755 196.194 180.156 200.594C184.556 204.995 187.552 210.601 188.766 216.705C189.98 222.809 189.356 229.135 186.973 234.884C184.591 240.633 180.557 245.546 175.382 249.002C170.207 252.458 164.123 254.302 157.9 254.3C149.56 254.297 141.562 250.983 135.664 245.086C129.767 239.188 126.453 231.19 126.45 222.85Z" fill="#D7A183"/>
<path fill-rule="evenodd" clip-rule="evenodd" d="M130.67 216C130.8 220.89 120.56 251.81 116.52 257.73C118.52 262.46 138.09 274.32 147.08 271.79C148.08 265.79 151.43 253.73 153.5 251.05C155.57 248.37 130.54 211.07 130.67 216Z" fill="#D7A183"/>
<path fill-rule="evenodd" clip-rule="evenodd" d="M166.62 156.54C163.63 156.549 160.678 157.209 157.969 158.473C155.26 159.737 152.858 161.575 150.93 163.86C148.343 162.885 145.604 162.377 142.84 162.36C139.135 162.307 135.47 163.133 132.146 164.77C128.822 166.407 125.933 168.809 123.716 171.778C121.499 174.747 120.017 178.2 119.392 181.852C118.767 185.504 119.017 189.253 120.12 192.79C118.723 194.076 117.607 195.637 116.843 197.375C116.078 199.113 115.683 200.991 115.68 202.89C115.702 206.157 116.863 209.315 118.962 211.819C121.061 214.323 123.967 216.017 127.18 216.61C127.34 215.84 127.34 215.3 127.59 214.42C128.27 212.08 138.45 207.8 139.59 208.57C140.487 209.214 141.509 209.663 142.59 209.89C142.683 209.895 142.777 209.895 142.87 209.89C147.098 209.879 151.246 208.738 154.884 206.584C158.522 204.43 161.517 201.342 163.56 197.64C164.581 197.819 165.614 197.923 166.65 197.95C166.65 202.048 167.865 206.054 170.142 209.461C172.419 212.869 175.655 215.525 179.441 217.093C183.227 218.661 187.393 219.071 191.412 218.272C195.432 217.472 199.124 215.499 202.021 212.601C204.919 209.704 206.892 206.012 207.692 201.992C208.491 197.973 208.081 193.807 206.513 190.021C204.945 186.235 202.289 182.999 198.881 180.722C195.474 178.445 191.468 177.23 187.37 177.23C187.366 174.509 186.826 171.815 185.781 169.303C184.736 166.791 183.207 164.509 181.28 162.588C179.353 160.666 177.067 159.143 174.551 158.106C172.036 157.068 169.341 156.536 166.62 156.54Z" fill="#6A3416"/>
<path fill-rule="evenodd" clip-rule="evenodd" d="M118.11 203.79C118.116 201.382 118.835 199.03 120.177 197.031C121.519 195.032 123.424 193.476 125.65 192.559C127.876 191.641 130.324 191.404 132.685 191.878C135.045 192.351 137.213 193.513 138.913 195.218C140.614 196.923 141.771 199.093 142.238 201.455C142.706 203.817 142.463 206.264 141.54 208.488C140.617 210.712 139.056 212.612 137.054 213.949C135.051 215.286 132.698 216 130.29 216C128.688 216 127.102 215.684 125.622 215.07C124.142 214.456 122.798 213.556 121.667 212.422C120.535 211.288 119.639 209.942 119.029 208.46C118.418 206.979 118.106 205.392 118.11 203.79Z" fill="#D7A183"/>
<path d="M55.58 415.48C54.27 396.14 72.75 324.29 86.58 302.91" stroke="#737999" stroke-width="2" stroke-linecap="round" stroke-linejoin="round"/>
<path d="M96.53 315.92C99.75 322.57 115.68 352.02 129.18 362.41C134.33 357.53 171.45 325.9 171.45 325.9C166.71 317.09 143.92 289.47 136.53 282.7" stroke="#737999" stroke-width="2" stroke-linecap="round" stroke-linejoin="round"/>
<path d="M122.19 359.69L166.81 322.82" stroke="#737999" stroke-width="2" stroke-linecap="round" stroke-linejoin="round"/>
<path d="M154.55 273.57C154.241 274.558 153.775 275.49 153.17 276.33C147.87 283.73 132.93 282.92 119.8 274.53" stroke="#737999" stroke-width="2" stroke-linecap="round" stroke-linejoin="round"/>
<path d="M159.77 282.8C162.3 289.38 165.77 304.73 164.3 319.42" stroke="#737999" stroke-width="2" stroke-linecap="round" stroke-linejoin="round"/>
<path d="M176.2 340.63L193 325.72" stroke="#737999" stroke-width="2" stroke-linecap="round" stroke-linejoin="round"/>
<path d="M103 402C108.55 401.13 138.85 401.75 133.25 403.65C127.65 405.55 117.17 406.9 121.84 408C126.326 409.051 130.871 409.833 135.45 410.34" stroke="#737999" stroke-width="2" stroke-linecap="round" stroke-linejoin="round"/>
<path d="M174.58 223.68C174.27 226.45 174.88 232.68 176.97 235.4" stroke="#B5545C" stroke-width="2" stroke-linecap="round" stroke-linejoin="round"/>
<path fill-rule="evenodd" clip-rule="evenodd" d="M157.72 220C158.72 217.63 160.72 216.2 162.11 216.81C163.5 217.42 163.78 219.81 162.75 222.2C161.72 224.59 159.75 226 158.36 225.39C156.97 224.78 156.68 222.38 157.72 220Z" fill="#B5545C"/>
<path fill-rule="evenodd" clip-rule="evenodd" d="M181.47 225.41C182.47 223.04 184.47 221.61 185.86 222.21C187.25 222.81 187.53 225.21 186.5 227.6C185.47 229.99 183.5 231.4 182.11 230.79C180.72 230.18 180.43 227.77 181.47 225.41Z" fill="#B5545C"/>
<path d="M157.6 242.81C155.68 242.201 153.983 241.039 152.72 239.471C151.457 237.902 150.685 235.995 150.5 233.99" stroke="#B5545C" stroke-width="2" stroke-linecap="round" stroke-linejoin="round"/>
<path d="M152.11 253.77C147.936 252.987 143.964 251.368 140.433 249.011C136.901 246.653 133.883 243.605 131.56 240.05" stroke="#B5545C" stroke-width="2" stroke-linecap="round" stroke-linejoin="round"/>
<path d="M134.54 215.2C133.182 215.712 131.742 215.972 130.29 215.97C129.181 215.97 128.078 215.818 127.01 215.52" stroke="#B5545C" stroke-width="2" stroke-linecap="round" stroke-linejoin="round"/>
<path d="M127.94 211.13C126.657 210.781 125.497 210.081 124.591 209.107C123.685 208.134 123.069 206.927 122.813 205.622C122.557 204.317 122.671 202.966 123.143 201.723C123.614 200.48 124.423 199.393 125.48 198.585C126.536 197.778 127.797 197.281 129.121 197.153C130.444 197.024 131.777 197.269 132.969 197.858C134.162 198.447 135.165 199.358 135.867 200.487C136.568 201.617 136.94 202.92 136.94 204.25" stroke="#B5545C" stroke-width="2" stroke-linecap="round" stroke-linejoin="round"/>
<path d="M235 378.29L201.73 373.21L181.08 346.69" stroke="#B5545C" stroke-width="2" stroke-linecap="round" stroke-linejoin="round"/>
<path d="M248.26 297.55C249.5 294.85 252.94 288.93 251.75 286.35C250.56 283.77 242.32 280.28 243.33 277.81C244.34 275.34 248.92 268.66 248.92 268.66" stroke="#B5545C" stroke-width="2" stroke-linecap="round" stroke-linejoin="round"/>
<path d="M262.74 258.92L256.43 271.82" stroke="#B5545C" stroke-width="2" stroke-linecap="round" stroke-linejoin="round"/>
<path d="M270.24 270.2L265.11 277.48" stroke="#B5545C" stroke-width="2" stroke-linecap="round" stroke-linejoin="round"/>
<path d="M313.59 383.86L322.75 390.86" stroke="#B5545C" stroke-width="2" stroke-linecap="round" stroke-linejoin="round"/>
<path d="M317.84 405L311 398.68" stroke="#B5545C" stroke-width="2" stroke-linecap="round" stroke-linejoin="round"/>
<path fill-rule="evenodd" clip-rule="evenodd" d="M276.75 160.17H288.28C288.82 160.17 289.28 160.81 289.28 161.6V168.79C289.28 169.58 288.83 170.21 288.28 170.21H276.75C276.2 170.21 275.75 169.58 275.75 168.79V161.6C275.76 160.81 276.2 160.17 276.75 160.17Z" fill="#FF3274"/>
<path fill-rule="evenodd" clip-rule="evenodd" d="M294.26 165.65V170.07C294.26 170.2 294.17 170.25 294.07 170.19L290.23 168L286.4 165.79C286.29 165.73 286.29 165.63 286.4 165.57L290.23 163.35L294.07 161.14C294.089 161.126 294.111 161.118 294.134 161.117C294.158 161.116 294.181 161.121 294.201 161.133C294.221 161.145 294.237 161.162 294.248 161.183C294.258 161.204 294.263 161.227 294.26 161.25V165.65Z" fill="#FF3274"/>
<path d="M268 165.19C268 161.828 268.997 158.541 270.865 155.745C272.733 152.95 275.388 150.771 278.494 149.484C281.601 148.197 285.019 147.861 288.317 148.517C291.614 149.173 294.643 150.792 297.021 153.169C299.398 155.547 301.017 158.576 301.673 161.873C302.329 165.171 301.993 168.589 300.706 171.696C299.419 174.802 297.24 177.457 294.445 179.325C291.649 181.193 288.362 182.19 285 182.19C280.491 182.19 276.167 180.399 272.979 177.211C269.791 174.023 268 169.699 268 165.19Z" stroke="#FF3274" stroke-width="2" stroke-linecap="round" stroke-linejoin="round"/>
<path d="M46.09 124H289.68C292.929 123.999 296.147 124.638 299.149 125.881C302.151 127.123 304.879 128.946 307.177 131.243C309.474 133.541 311.297 136.269 312.539 139.271C313.782 142.273 314.421 145.491 314.42 148.74V272.81C314.42 279.371 311.813 285.664 307.174 290.304C302.534 294.943 296.241 297.55 289.68 297.55H46.09C39.5303 297.547 33.2401 294.94 28.6026 290.3C23.9651 285.661 21.36 279.37 21.36 272.81V148.74C21.3587 145.492 21.9974 142.275 23.2396 139.273C24.4818 136.272 26.3032 133.544 28.5997 131.247C30.8962 128.949 33.6229 127.127 36.6239 125.883C39.6249 124.64 42.8416 124 46.09 124Z" stroke="#9B9B9B" stroke-width="2" stroke-linecap="round" stroke-linejoin="round"/>
<path d="M312.83 139.87H23.2" stroke="#9B9B9B" stroke-width="2" stroke-linecap="round" stroke-linejoin="round"/>
<path d="M39.14 132.23C39.138 131.533 39.3428 130.852 39.7284 130.272C40.1139 129.692 40.663 129.239 41.306 128.971C41.949 128.703 42.6571 128.632 43.3406 128.766C44.024 128.901 44.6522 129.236 45.1455 129.727C45.6387 130.219 45.975 130.847 46.1116 131.53C46.2482 132.213 46.1791 132.921 45.913 133.565C45.6469 134.209 45.1957 134.759 44.6166 135.146C44.0376 135.533 43.3566 135.74 42.66 135.74C41.7282 135.74 40.8344 135.371 40.1745 134.713C39.5147 134.055 39.1426 133.162 39.14 132.23Z" stroke="#FF3274" stroke-width="2" stroke-linecap="round" stroke-linejoin="round"/>
<path d="M53 132.23C52.998 131.533 53.2028 130.852 53.5884 130.272C53.974 129.692 54.523 129.239 55.166 128.971C55.809 128.703 56.5171 128.632 57.2006 128.766C57.8841 128.901 58.5122 129.236 59.0055 129.727C59.4988 130.219 59.835 130.847 59.9716 131.53C60.1083 132.213 60.0391 132.921 59.773 133.565C59.5069 134.209 59.0557 134.759 58.4767 135.146C57.8976 135.533 57.2166 135.74 56.52 135.74C56.0582 135.741 55.6007 135.652 55.1737 135.476C54.7467 135.3 54.3586 135.042 54.0316 134.716C53.7046 134.389 53.4452 134.002 53.2681 133.576C53.0911 133.149 53 132.692 53 132.23Z" stroke="#FF3274" stroke-width="2" stroke-linecap="round" stroke-linejoin="round"/>
<path d="M66.89 132.23C66.888 131.533 67.0928 130.852 67.4784 130.272C67.8639 129.692 68.413 129.239 69.056 128.971C69.699 128.703 70.4071 128.632 71.0906 128.766C71.774 128.901 72.4022 129.236 72.8955 129.727C73.3887 130.219 73.725 130.847 73.8616 131.53C73.9982 132.213 73.9291 132.921 73.663 133.565C73.3969 134.209 72.9457 134.759 72.3666 135.146C71.7876 135.533 71.1066 135.74 70.41 135.74C69.4782 135.74 68.5844 135.371 67.9245 134.713C67.2647 134.055 66.8926 133.162 66.89 132.23Z" stroke="#FF3274" stroke-width="2" stroke-linecap="round" stroke-linejoin="round"/>
<path d="M503.2 423.18L410.69 707" stroke="#AD836C" stroke-width="2" stroke-linecap="round" stroke-linejoin="round"/>
<path d="M578.31 423.18L485.8 707" stroke="#AD836C" stroke-width="2" stroke-linecap="round" stroke-linejoin="round"/>
<path d="M578.31 423.18L670.81 707" stroke="#AD836C" stroke-width="2" stroke-linecap="round" stroke-linejoin="round"/>
<path d="M503.2 423.18L595.7 707" stroke="#AD836C" stroke-width="2" stroke-linecap="round" stroke-linejoin="round"/>
<path fill-rule="evenodd" clip-rule="evenodd" d="M343 238.4H486.39C489.358 238.4 492.204 239.579 494.303 241.677C496.401 243.776 497.58 246.622 497.58 249.59V368C497.58 370.968 496.401 373.814 494.303 375.913C492.204 378.011 489.358 379.19 486.39 379.19H343C340.036 379.185 337.195 378.003 335.1 375.905C333.006 373.807 331.83 370.964 331.83 368V249.59C331.83 246.626 333.006 243.782 335.1 241.685C337.195 239.587 340.036 238.405 343 238.4Z" fill="#CCCACA" fill-opacity="0.96"/>
<path fill-rule="evenodd" clip-rule="evenodd" d="M343 238.39C341.531 238.389 340.076 238.677 338.719 239.238C337.361 239.799 336.127 240.623 335.088 241.661C334.049 242.699 333.224 243.932 332.662 245.289C332.1 246.646 331.81 248.101 331.81 249.57V368C331.823 370.959 333.008 373.792 335.105 375.88C337.202 377.968 340.041 379.14 343 379.14H350.19C350.13 378.46 349.97 377.8 349.97 377.14V238.39H343Z" fill="#8D8D8D"/>
<path fill-rule="evenodd" clip-rule="evenodd" d="M394.82 344.28H443.23L470.34 405.94H420.22L394.82 344.28Z" fill="#8D8D8D"/>
<path fill-rule="evenodd" clip-rule="evenodd" d="M556.54 362.49H596.42V405.94H556.54V362.49Z" fill="#F77F89"/>
<path d="M585.79 384.21C585.79 382.175 586.393 380.185 587.524 378.493C588.655 376.801 590.262 375.482 592.142 374.703C594.022 373.924 596.091 373.721 598.087 374.118C600.084 374.515 601.917 375.495 603.356 376.934C604.795 378.373 605.775 380.206 606.172 382.203C606.569 384.199 606.366 386.268 605.587 388.148C604.808 390.028 603.489 391.635 601.797 392.766C600.105 393.896 598.115 394.5 596.08 394.5C593.351 394.5 590.734 393.416 588.804 391.486C586.874 389.556 585.79 386.939 585.79 384.21Z" stroke="#F77F89" stroke-width="2" stroke-linecap="round" stroke-linejoin="round"/>
<path d="M556.54 369.89H596.08" stroke="#AADAF1" stroke-width="2" stroke-linecap="round" stroke-linejoin="round"/>
<path opacity="0.25" fill-rule="evenodd" clip-rule="evenodd" d="M46.22 124H289.81C296.371 124 302.664 126.607 307.304 131.246C311.943 135.886 314.55 142.179 314.55 148.74V272.81C314.55 279.371 311.943 285.664 307.304 290.304C302.664 294.943 296.371 297.55 289.81 297.55H46.22C39.6603 297.547 33.3701 294.94 28.7326 290.3C24.0951 285.661 21.49 279.37 21.49 272.81V148.74C21.4887 145.492 22.1274 142.275 23.3696 139.273C24.6118 136.272 26.4332 133.544 28.7297 131.247C31.0262 128.949 33.7529 127.127 36.7539 125.883C39.755 124.64 42.9716 124 46.22 124Z" fill="white" fill-opacity="0.54"/>
<path fill-rule="evenodd" clip-rule="evenodd" d="M154.42 680.51L182.92 692.85C182.92 692.85 218.44 726.13 234.83 734.24C234.78 741.63 233.83 745.06 228.15 747.17C225.61 748.11 179.7 729.73 179.7 729.73L172 721.47L142.3 707.81L154.42 680.51Z" fill="#6A3416"/>
<path fill-rule="evenodd" clip-rule="evenodd" d="M140.06 702.56L169.13 715.49C169.886 715.82 170.48 716.435 170.784 717.201C171.087 717.967 171.075 718.823 170.75 719.58L168.21 725.29C168.04 725.661 167.798 725.994 167.499 726.272C167.199 726.549 166.848 726.764 166.466 726.905C166.083 727.047 165.676 727.111 165.268 727.094C164.861 727.078 164.46 726.981 164.09 726.81L135 713.88C134.625 713.719 134.286 713.486 134.002 713.193C133.718 712.901 133.494 712.555 133.343 712.176C133.193 711.797 133.119 711.392 133.125 710.984C133.131 710.577 133.218 710.174 133.38 709.8L135.91 704.09C136.081 703.716 136.325 703.38 136.626 703.101C136.928 702.822 137.281 702.605 137.667 702.463C138.053 702.32 138.463 702.256 138.873 702.273C139.284 702.289 139.687 702.387 140.06 702.56Z" fill="#3C1B09"/>
</svg>
