<svg width="1336" height="330" viewBox="0 0 1336 330" fill="none" xmlns="http://www.w3.org/2000/svg">
<mask id="mask0_17_21" style="mask-type:alpha" maskUnits="userSpaceOnUse" x="-2" y="0" width="1338" height="344">
<path d="M1336 0H-2V343.879H1336V0Z" fill="#00A9B8"/>
</mask>
<g mask="url(#mask0_17_21)">
<path d="M315.306 351.694C274.145 328.248 95.849 278.542 -62.9603 273.54" stroke="#4F60C2" stroke-width="0.7"/>
<path d="M346.568 354.82C309.575 310.533 187.133 223.521 -6.68923 229.773" stroke="#4F60C2" stroke-width="0.7"/>
<path d="M479.43 348.568C461.715 344.921 415.031 329.185 370.014 295.423C313.743 253.22 171.502 121.921 -5.12618 209.453" stroke="#4F60C2" stroke-width="0.7"/>
<path d="M552.895 345.442C506.002 338.668 410.405 299.425 355.946 228.21C294.986 148.493 205.89 46.8926 -3.56308 184.444" stroke="#4F60C2" stroke-width="0.7"/>
<path d="M796.736 350.131C773.29 328.769 696.699 283.856 577.904 275.103C429.411 264.161 355.946 170.376 307.491 117.231C270.257 76.394 148.056 26.5725 -6.68926 165.687" stroke="#4F60C2" stroke-width="0.7"/>
<path d="M984.306 348.568C966.07 316.264 899.9 248.53 781.105 236.026C632.612 220.395 507.565 228.21 437.227 150.056C366.888 71.902 188.696 -48.4555 -3.56311 150.056" stroke="#4F60C2" stroke-width="0.7"/>
</g>
</svg>
